<?xml version="1.0" encoding="UTF-8"?>
<svg id="Ebene_1" data-name="Ebene 1" xmlns="http://www.w3.org/2000/svg" xmlns:xlink="http://www.w3.org/1999/xlink" viewBox="0 0 310.76 34.87">
  <defs>
    <style>
      .cls-1 {
        fill: none;
      }

      .cls-2 {
        clip-path: url(#clippath);
      }

      .cls-3 {
        fill: #f1f1f1;
      }

      .cls-4 {
        fill: #26497e;
      }
    </style>
    <clipPath id="clippath">
      <rect class="cls-1" x="0" width="310.76" height="34.87"/>
    </clipPath>
  </defs>
  <g class="cls-2">
    <path class="cls-4" d="m187.83,34.87c9.39,0,17.01-7.61,17.01-17.01S197.23.85,187.83.85s-17.01,7.61-17.01,17.01,7.62,17.01,17.01,17.01"/>
    <path class="cls-3" d="m307.43,17.55c0,1.49-.3,2.8-.9,3.92-.6,1.12-1.41,1.97-2.44,2.56-1.02.59-2.15.88-3.38.88s-2.35-.29-3.36-.88c-1.01-.59-1.82-1.44-2.42-2.56-.6-1.12-.9-2.44-.9-3.95s.3-2.79.9-3.9c.6-1.11,1.41-1.95,2.42-2.53,1.01-.58,2.13-.87,3.36-.87s2.35.3,3.38.88c1.02.59,1.84,1.44,2.44,2.55.6,1.11.9,2.41.9,3.9m-16.76-.04c0,2,.41,3.78,1.23,5.35.82,1.56,1.94,2.78,3.36,3.65,1.42.87,3.01,1.3,4.77,1.3s3.21-.38,4.5-1.14c1.29-.76,2.26-1.72,2.91-2.87v3.68h3.32V7.69h-3.32v3.61c-.63-1.13-1.58-2.07-2.85-2.82-1.28-.75-2.78-1.12-4.51-1.12s-3.35.42-4.79,1.26c-1.43.84-2.56,2.03-3.38,3.56-.82,1.53-1.23,3.3-1.23,5.33m-7.66,9.97h3.29V7.69h-3.29v19.79Zm1.7-23.01c.6,0,1.11-.22,1.54-.65.42-.43.63-.96.63-1.59s-.21-1.16-.63-1.59C285.83.22,285.32,0,284.72,0s-1.16.22-1.59.65c-.43.43-.65.96-.65,1.59s.22,1.16.65,1.59c.43.43.96.65,1.59.65m-10.58,13.08c0,1.49-.3,2.8-.9,3.92-.6,1.12-1.42,1.97-2.44,2.56-1.02.59-2.15.88-3.38.88s-2.35-.29-3.36-.88c-1.01-.59-1.82-1.44-2.42-2.56-.6-1.12-.9-2.44-.9-3.95s.3-2.79.9-3.9c.6-1.11,1.41-1.95,2.42-2.53,1.01-.58,2.13-.87,3.36-.87s2.35.3,3.38.88c1.02.59,1.83,1.44,2.44,2.55.6,1.11.9,2.41.9,3.9m-16.76-.04c0,2,.41,3.78,1.23,5.35.82,1.56,1.94,2.78,3.38,3.65,1.43.87,3.03,1.3,4.79,1.3s3.2-.38,4.48-1.14c1.28-.76,2.24-1.73,2.89-2.91v3.72h3.32V.76h-3.32v10.47c-.7-1.16-1.71-2.09-3.03-2.8-1.32-.71-2.76-1.07-4.3-1.07-1.78,0-3.39.42-4.82,1.26-1.43.84-2.56,2.03-3.38,3.56-.82,1.53-1.23,3.3-1.23,5.33m-6.5-1.37h-12.5c.17-1.88.84-3.35,2-4.41,1.17-1.06,2.58-1.59,4.24-1.59,1.16,0,2.21.24,3.16.7.95.47,1.7,1.16,2.26,2.06s.83,1.98.83,3.23m3.39.69c0-1.81-.39-3.42-1.17-4.86-.78-1.43-1.9-2.56-3.34-3.38-1.44-.82-3.11-1.23-4.98-1.23s-3.63.41-5.11,1.25c-1.48.83-2.63,2.02-3.45,3.56-.82,1.54-1.23,3.34-1.23,5.38s.42,3.85,1.26,5.4c.84,1.55,2,2.75,3.49,3.59s3.16,1.26,5.04,1.26c2.36,0,4.33-.6,5.92-1.79,1.59-1.19,2.65-2.74,3.18-4.64h-3.54c-.38,1.11-1.05,1.99-2.01,2.65-.95.66-2.14.99-3.56.99-1.73,0-3.21-.55-4.43-1.64-1.22-1.1-1.88-2.62-2-4.57h15.82c.07-.7.11-1.36.11-1.99m-31.46-9.5c-1.57,0-2.99.39-4.26,1.16-1.28.77-2.19,1.85-2.74,3.25-.63-1.44-1.58-2.54-2.85-3.29-1.28-.75-2.74-1.12-4.41-1.12-1.32,0-2.54.28-3.63.83-1.1.55-1.97,1.35-2.62,2.38v-2.85h-3.29v19.79h3.29v-10.91c0-2.07.51-3.65,1.52-4.75,1.01-1.09,2.37-1.64,4.08-1.64s2.98.52,3.96,1.57c.97,1.05,1.46,2.56,1.46,4.53v11.2h3.25v-10.91c0-2.07.51-3.65,1.52-4.75,1.01-1.09,2.37-1.64,4.08-1.64s2.98.52,3.96,1.57c.97,1.05,1.46,2.56,1.46,4.53v11.2h3.25v-11.67c0-1.83-.35-3.38-1.05-4.66-.7-1.28-1.65-2.23-2.85-2.87-1.21-.64-2.58-.96-4.12-.96m-34.96,20.35c1.35,0,2.48-.45,3.39-1.35.92-.9,1.37-2.02,1.37-3.34s-.46-2.44-1.37-3.36c-.91-.91-2.05-1.37-3.39-1.37s-2.41.46-3.32,1.37c-.92.91-1.37,2.03-1.37,3.36,0,.87.21,1.66.63,2.37.42.71.99,1.28,1.7,1.7.71.42,1.5.63,2.37.63m-19-20.35c-1.35,0-2.58.28-3.7.83-1.12.55-2,1.34-2.65,2.35v-2.82h-3.29v19.79h3.29v-10.94c0-2.07.51-3.65,1.54-4.73,1.02-1.08,2.4-1.62,4.13-1.62s3.06.52,4.04,1.57c.99,1.05,1.48,2.56,1.48,4.53v11.2h3.25v-11.67c0-2.75-.75-4.85-2.24-6.3-1.49-1.46-3.44-2.19-5.85-2.19m-23.12,0c-1.35,0-2.58.28-3.7.83-1.12.55-2.01,1.34-2.65,2.35v-2.82h-3.29v19.79h3.29v-10.94c0-2.07.51-3.65,1.54-4.73,1.02-1.08,2.4-1.62,4.14-1.62s3.06.52,4.05,1.57c.99,1.05,1.48,2.56,1.48,4.53v11.2h3.25v-11.67c0-2.75-.75-4.85-2.24-6.3-1.49-1.46-3.44-2.19-5.85-2.19m-18.53,10.22c0,1.49-.3,2.8-.9,3.92s-1.41,1.97-2.44,2.56c-1.02.59-2.15.88-3.38.88s-2.35-.29-3.36-.88c-1.01-.59-1.82-1.44-2.42-2.56-.6-1.12-.9-2.44-.9-3.95s.3-2.79.9-3.9c.6-1.11,1.41-1.95,2.42-2.53,1.01-.58,2.13-.87,3.36-.87s2.35.3,3.38.88c1.02.59,1.83,1.44,2.44,2.55.6,1.11.9,2.41.9,3.9m-16.76-.04c0,2,.41,3.78,1.23,5.35.82,1.56,1.94,2.78,3.36,3.65,1.42.87,3.01,1.3,4.77,1.3s3.21-.38,4.5-1.14c1.29-.76,2.26-1.72,2.91-2.87v3.68h3.32V7.69h-3.32v3.61c-.63-1.13-1.58-2.07-2.85-2.82-1.28-.75-2.78-1.12-4.51-1.12s-3.35.42-4.79,1.26c-1.43.84-2.56,2.03-3.38,3.56-.82,1.53-1.23,3.3-1.23,5.33m-12.17-10.19c-1.56,0-2.99.39-4.26,1.16-1.28.77-2.19,1.85-2.74,3.25-.63-1.44-1.58-2.54-2.85-3.29-1.28-.75-2.74-1.12-4.41-1.12-1.32,0-2.53.28-3.63.83-1.1.55-1.97,1.35-2.62,2.38v-2.85h-3.29v19.79h3.29v-10.91c0-2.07.51-3.65,1.52-4.75,1.01-1.09,2.37-1.64,4.08-1.64s2.98.52,3.96,1.57c.97,1.05,1.46,2.56,1.46,4.53v11.2h3.25v-10.91c0-2.07.51-3.65,1.52-4.75,1.01-1.09,2.37-1.64,4.08-1.64s2.98.52,3.96,1.57c.97,1.05,1.46,2.56,1.46,4.53v11.2h3.25v-11.67c0-1.83-.35-3.38-1.05-4.66-.7-1.28-1.65-2.23-2.85-2.87-1.2-.64-2.58-.96-4.12-.96m-33.99,3.58v-3.21h-3.29v19.79h3.29v-10.76c0-4,1.84-6,5.53-6h.87v-3.4c-1.54,0-2.85.31-3.92.94-1.07.63-1.9,1.5-2.47,2.64m-13.47,0v-3.21h-3.29v19.79h3.29v-10.76c0-4,1.84-6,5.53-6h.87v-3.4c-1.54,0-2.85.31-3.92.94-1.07.63-1.9,1.5-2.47,2.64m-17.77,14.01c-1.18,0-2.26-.27-3.25-.81-.99-.54-1.78-1.37-2.36-2.47-.59-1.11-.89-2.47-.89-4.08s.3-2.94.9-4.05c.6-1.11,1.4-1.93,2.4-2.47,1-.54,2.1-.81,3.3-.81s2.28.27,3.29.81c1.01.54,1.83,1.37,2.46,2.47.63,1.11.94,2.46.94,4.05s-.32,2.94-.96,4.04c-.64,1.11-1.48,1.94-2.51,2.49-1.04.55-2.14.83-3.32.83m0,2.89c1.88,0,3.59-.42,5.13-1.26,1.54-.84,2.76-2.04,3.67-3.59.9-1.55,1.35-3.35,1.35-5.4s-.44-3.84-1.32-5.38c-.88-1.54-2.08-2.73-3.59-3.56-1.52-.83-3.21-1.25-5.09-1.25s-3.58.41-5.09,1.25c-1.52.83-2.72,2.02-3.59,3.58-.88,1.55-1.32,3.34-1.32,5.36s.43,3.85,1.28,5.4c.85,1.55,2.03,2.75,3.54,3.59,1.5.84,3.18,1.26,5.04,1.26m-16.32-10.29c0,1.52-.3,2.83-.9,3.95-.6,1.12-1.41,1.97-2.44,2.56-1.02.59-2.15.88-3.38.88s-2.32-.29-3.34-.88c-1.02-.59-1.84-1.44-2.46-2.56-.61-1.12-.92-2.43-.92-3.92s.31-2.76.92-3.88c.61-1.12,1.43-1.97,2.46-2.56,1.02-.59,2.14-.88,3.34-.88s2.35.29,3.38.87c1.02.58,1.84,1.42,2.44,2.53.6,1.11.9,2.41.9,3.9M3.29,11.38V.76H0v26.73h3.29v-3.65c.65,1.15,1.62,2.11,2.91,2.85,1.29.75,2.79,1.12,4.5,1.12s3.35-.43,4.79-1.3c1.43-.87,2.56-2.08,3.38-3.65.82-1.57,1.23-3.35,1.23-5.35s-.41-3.8-1.23-5.33c-.82-1.53-1.94-2.72-3.36-3.56-1.42-.84-3.02-1.26-4.8-1.26-1.66,0-3.14.37-4.44,1.12-1.3.75-2.29,1.71-2.96,2.89"/>
  </g>
</svg>