<?xml version="1.0" encoding="UTF-8"?>
<svg id="Ebene_1" data-name="Ebene 1" xmlns="http://www.w3.org/2000/svg" xmlns:xlink="http://www.w3.org/1999/xlink" viewBox="0 0 483.49 259.52">
  <defs>
    <style>
      .cls-1 {
        fill: #c9e5df;
      }

      .cls-1, .cls-2, .cls-3, .cls-4, .cls-5, .cls-6, .cls-7, .cls-8, .cls-9, .cls-10, .cls-11, .cls-12 {
        stroke-width: 0px;
      }

      .cls-2 {
        fill: #ef8088;
      }

      .cls-3 {
        fill: #b17f4a;
      }

      .cls-13 {
        clip-path: url(#clippath-2);
      }

      .cls-4 {
        fill: none;
      }

      .cls-14 {
        clip-path: url(#clippath-1);
      }

      .cls-5 {
        fill: #fde4d0;
      }

      .cls-6 {
        fill: #f9cac2;
      }

      .cls-7 {
        fill: #6bbfa3;
      }

      .cls-8 {
        fill: #fff;
      }

      .cls-9 {
        fill: #ffdc4a;
      }

      .cls-10 {
        fill: #fad2c6;
      }

      .cls-15 {
        clip-path: url(#clippath);
      }

      .cls-11 {
        fill: #1d1d1b;
      }

      .cls-12 {
        fill: #ee6f5c;
      }
    </style>
    <clipPath id="clippath">
      <rect class="cls-4" y="0" width="483.49" height="259.52"/>
    </clipPath>
    <clipPath id="clippath-1">
      <rect class="cls-4" y="0" width="483.49" height="259.52"/>
    </clipPath>
    <clipPath id="clippath-2">
      <rect class="cls-4" y="0" width="483.49" height="259.52"/>
    </clipPath>
  </defs>
  <g class="cls-15">
    <path class="cls-2" d="m218.65,236.38c.64-.9.96-1.62.96-2.17,0-.25-.07-.48-.21-.68-.14-.2-.33-.3-.59-.3s-.5.04-.73.13l-.57.19c0,.8.38,1.74,1.13,2.83m.1-5.83c1.08,0,1.88.25,2.41.79.53.53.79,1.3.79,2.29s-.23,1.84-.68,2.55c-.46.7-1.02,1.2-1.68,1.49.47.63.89,1.27,1.26,1.92.38.65.57,1.33.57,2.04,0,1.41-.43,2.49-1.28,3.25-.85.76-2.04,1.15-3.56,1.15s-2.65-.39-3.41-1.18c-.75-.79-1.13-1.68-1.13-2.67s.19-1.9.57-2.72c.38-.82.79-1.23,1.22-1.23.26,0,.44.12.55.36.11.24.32.94.63,2.09.11.42.3.82.55,1.19.59.86,1.53,1.29,2.82,1.29-.19-.79-.5-1.48-.93-2.06-.42-.58-.85-1.14-1.26-1.68-.42-.54-.79-1.13-1.11-1.74-.32-.62-.48-1.35-.48-2.18,0-1.51.43-2.73,1.3-3.68.82-.84,1.77-1.26,2.84-1.27"/>
    <path class="cls-2" d="m232.49,238.36c.29,0,.43.32.43.96s-.12,1.32-.37,2.06c-.25.73-.62,1.44-1.13,2.12-.51.68-1.15,1.26-1.94,1.74-.79.48-1.72.72-2.78.72s-2.01-.41-2.81-1.24c-.8-.83-1.21-2.02-1.21-3.58s.19-2.98.57-4.24c.38-1.27.88-2.36,1.5-3.28.62-.92,1.32-1.64,2.11-2.15.79-.51,1.53-.77,2.24-.77,1.24,0,1.86.64,1.86,1.92,0,.73-.12,1.32-.35,1.76-.23.44-.47.66-.71.66-.32,0-.6-.15-.84-.44-.24-.29-.51-.44-.8-.46-.29,0-.57.17-.83.55-.27.38-.49.86-.66,1.45-.36,1.17-.53,2.55-.53,4.12.01.75.28,1.32.79,1.7.35.25.77.38,1.25.39.48.01.94-.19,1.39-.61.44-.42.85-.88,1.22-1.37.37-.49.69-.95.98-1.37.28-.42.49-.63.64-.63"/>
    <path class="cls-2" d="m239.74,235.22c0-.76-.34-1.13-1.02-1.13s-1.36.68-2.01,2.06c-.66,1.37-1.07,2.77-1.23,4.2.03.48.06.96.1,1.45.03.48.05.95.05,1.41,0,1.11-.28,1.87-.84,2.26-.26.19-.5.37-.74.53-.23.17-.5.25-.81.25s-.57-.27-.81-.8c-.23-.53-.35-1.37-.35-2.5,0-3.16.17-5.91.53-8.23.55-3.6,1.63-7.46,3.25-11.57.22-.57.55-.84.99-.83.44,0,.79.4,1.06,1.18.27.77.41,1.42.4,1.95,0,.52-.07,1.03-.2,1.52-.12.49-.27.97-.46,1.45s-.39.95-.63,1.45c-.24.49-.46,1.02-.69,1.59l-.36,2.26c.63-1.36,1.47-2.27,2.53-2.73.38-.17.81-.25,1.28-.25,1.09,0,1.92.32,2.48.96.56.64.84,1.54.84,2.7s-.12,2.34-.35,3.54c-.23,1.19-.4,2.05-.51,2.56-.1.51-.16.94-.16,1.27s.09.5.27.5c.24,0,.54-.2.89-.6.35-.4.7-.83,1.06-1.31.35-.47.68-.91.98-1.3.3-.4.5-.6.62-.6.22,0,.34.36.34,1.07,0,1.47-.55,2.88-1.66,4.24-1.86,1.42-3.05,2.14-3.57,2.14l-.1-.03c-1.29,0-1.93-1.34-1.93-4.02,0-1.15.09-2.21.25-3.17.17-.96.29-1.67.37-2.11.08-.44.12-.89.12-1.35"/>
    <path class="cls-2" d="m254.57,239.46c.27-.76.41-1.49.41-2.2s-.18-1.07-.53-1.07c-.14,0-.27.13-.36.41-.1.27-.14.53-.14.79,0,.84.21,1.53.62,2.07m1.86-16.12c-.69,2.35-1.53,3.52-2.51,3.52-.37,0-.66-.15-.88-.46-.21-.3-.32-.64-.32-1.02,0-.94.17-1.69.51-2.25.34-.55.74-.83,1.2-.83.9,0,1.57.35,2,1.04m-5.86,2.81c-.53.47-1.11.71-1.73.71s-.94-.45-.94-1.35.23-1.71.68-2.42c.45-.71.94-1.07,1.47-1.07.63,0,1.2.74,1.71,2.23-.26.8-.65,1.43-1.18,1.9m4.22,16.95c-1.27,1.95-2.79,2.92-4.57,2.92s-3.1-.59-3.99-1.77c-.89-1.18-1.32-2.66-1.3-4.42-.02-2.49.59-4.64,1.81-6.44,1.22-1.8,2.82-2.7,4.8-2.7.9,0,1.62.15,2.17.44.95.5,1.42.98,1.42,1.42,0,.34-.66.51-1.99.52-1.32.01-2.43.61-3.33,1.79-.89,1.18-1.34,2.68-1.34,4.48,0,.94.21,1.73.64,2.37.42.64,1.03.96,1.81.96s1.42-.21,1.94-.63c-1.14-1.01-1.71-2.46-1.71-4.37-.01-1.01.26-1.92.83-2.75.57-.83,1.3-1.25,2.19-1.26.89,0,1.53.31,1.92.96.38.65.58,1.48.58,2.5s-.19,2.09-.55,3.22h.14c.71-.02,1.32-.35,1.83-.97.19-.25.36-.47.49-.66l.42-.28c.23,0,.34.34.34,1.04,0,1.28-.29,2.24-.87,2.87-.58.64-1.22.96-1.92.96s-1.29-.06-1.77-.19"/>
    <path class="cls-2" d="m261.34,230.09c.58,0,1.12.72,1.64,2.17.75-1.02,1.69-1.54,2.81-1.54s1.96.32,2.52.96c.56.64.84,1.54.84,2.7s-.12,2.34-.35,3.54c-.23,1.19-.4,2.05-.51,2.56-.1.51-.16.94-.16,1.27s.09.5.27.5c.24,0,.54-.2.89-.6.35-.4.71-.83,1.06-1.31.35-.47.68-.91.97-1.3.3-.4.5-.6.61-.6.23,0,.34.36.34,1.07,0,1.47-.55,2.88-1.67,4.24-1.86,1.42-3.05,2.14-3.57,2.14l-.1-.03c-1.29,0-1.93-1.34-1.93-4.02,0-1.15.08-2.21.25-3.17.17-.96.29-1.67.37-2.11.08-.44.12-.89.12-1.35,0-.76-.33-1.13-1-1.13s-1.3.64-1.91,1.93c-.6,1.29-1.01,2.62-1.22,4.01v.22c0,.71.08,1.45.25,2.2.17.75.25,1.28.25,1.57,0,.71-.68,1.41-2.05,2.11l-.55.16c-.4,0-.68-.27-.83-.82-.15-.54-.23-1.39-.23-2.55,0-2.97.09-5.12.26-6.44.24-1.97.79-3.8,1.64-5.5.29-.58.61-.88.94-.88"/>
    <path class="cls-2" d="m276.28,233.49c-.84,0-1.41,1.27-1.73,3.8.34-.29.66-.56.95-.79.3-.23.56-.45.78-.66.48-.46.73-.99.75-1.57,0-.52-.25-.79-.75-.79m.41,8.86c1.26,0,2.47-.65,3.64-1.95.43-.48.79-.93,1.06-1.34.27-.41.48-.61.63-.61.23,0,.34.29.34.88s-.12,1.24-.36,1.96c-.24.72-.64,1.43-1.21,2.12-1.38,1.7-3.28,2.54-5.69,2.54-1.91,0-3.21-.9-3.9-2.7-.24-.63-.36-1.53-.36-2.7s.18-2.39.53-3.66c.35-1.27.82-2.36,1.41-3.28.59-.92,1.26-1.64,2.04-2.15.77-.51,1.59-.77,2.47-.77s1.55.28,2.02.85.71,1.3.71,2.2-.17,1.64-.52,2.22c-.34.58-.79,1.06-1.34,1.44-.55.39-1.15.73-1.82,1.04-.67.3-1.32.65-1.96,1.02v.79c.01.75.26,1.29.72,1.6.47.31,1,.48,1.59.5"/>
    <path class="cls-2" d="m286.56,236.38c.64-.9.96-1.62.96-2.17,0-.25-.07-.48-.21-.68-.14-.2-.33-.3-.59-.3s-.5.04-.73.13l-.57.19c0,.8.38,1.74,1.13,2.83m.1-5.83c1.08,0,1.88.25,2.41.79.53.53.8,1.3.8,2.29s-.23,1.84-.69,2.55c-.46.7-1.01,1.2-1.67,1.49.47.63.89,1.27,1.26,1.92.38.65.57,1.33.57,2.04,0,1.41-.42,2.49-1.28,3.25-.85.76-2.04,1.15-3.56,1.15s-2.66-.39-3.41-1.18c-.76-.79-1.13-1.68-1.13-2.67s.19-1.9.57-2.72c.38-.82.78-1.23,1.22-1.23.26,0,.44.12.55.36.11.24.32.94.63,2.09.11.42.3.82.55,1.19.59.86,1.53,1.29,2.82,1.29-.2-.79-.5-1.48-.93-2.06-.43-.58-.85-1.14-1.26-1.68-.42-.54-.79-1.13-1.11-1.74-.32-.62-.48-1.35-.48-2.18,0-1.51.43-2.73,1.3-3.68.82-.84,1.77-1.26,2.85-1.27"/>
    <path class="cls-2" d="m309.29,225.44c-.32,0-.76.4-1.31,1.19-.55.8-1.12,2.01-1.7,3.65,1.17-.67,1.95-1.18,2.31-1.54.75-.69,1.13-1.52,1.13-2.48,0-.54-.15-.82-.43-.82m-5.42,25.94c.16-.39.24-.8.24-1.24,0-1.45-.15-3.67-.46-6.66-.4,2.16-.67,4.3-.82,6.44-.03.46-.05.74-.05.85,0,.8.18,1.19.56,1.19.19,0,.37-.19.53-.58m-2.94-21.61c0-.38.1-.57.31-.57.32,0,.65.09.99.27.34.18.7.32,1.09.42,1.29-3.58,2.76-5.92,4.43-7.01.58-.38,1.16-.57,1.74-.57,1.08.02,1.8.36,2.18,1,.38.65.57,1.49.57,2.52-.02,1.95-.66,3.48-1.93,4.61-1.27,1.12-2.82,1.74-4.65,1.87-.47,1.61-.83,3.33-1.09,5.15.63-.32,1.43-.47,2.41-.47.13,1.32.35,2.26.68,2.83.32.57.68.85,1.07.85s.72-.13.99-.38c.27-.25.5-.53.7-.85.2-.31.37-.6.51-.85.14-.25.27-.38.4-.38.27,0,.41.31.41.94,0,1.26-.24,2.3-.72,3.13-.48.83-1.22,1.24-2.22,1.24-1.56,0-2.67-.53-3.33-1.6.35,4.61.53,7.35.53,8.23,0,1.57-.38,2.69-1.13,3.36-.63.57-1.43.85-2.4.85s-1.65-.29-2.03-.86c-.38-.58-.57-1.26-.57-2.06,0-5.05.56-10.13,1.67-15.24.35-1.63.75-3.17,1.2-4.59-1.2-.69-1.81-1.31-1.81-1.85"/>
    <path class="cls-2" d="m321.77,223.34c-.69,2.35-1.53,3.52-2.51,3.52-.37,0-.66-.15-.88-.46s-.33-.64-.33-1.02c0-.94.17-1.69.51-2.25.34-.55.74-.83,1.21-.83.9,0,1.57.35,2,1.04m-5.86,2.81c-.53.47-1.11.71-1.73.71s-.94-.45-.95-1.35c0-.9.21-1.71.66-2.42.45-.71.95-1.07,1.5-1.07.62,0,1.2.74,1.71,2.23-.26.8-.65,1.43-1.18,1.9m2.34,6.36c0-1.4.84-2.11,2.51-2.11.42,0,.68.18.79.53.1.36.16.9.16,1.63,0,1.03-.18,2.62-.53,4.78-.35,2.16-.52,3.61-.51,4.37,0,.36.09.53.26.53.24,0,.54-.2.89-.6.35-.4.71-.83,1.06-1.31.35-.47.68-.91.98-1.3.3-.4.5-.6.61-.6.23,0,.34.36.34,1.07,0,1.47-.55,2.88-1.66,4.24-1.86,1.42-3.04,2.14-3.54,2.14l-.12-.03c-.61,0-1.04-.26-1.29-.79-.25-.52-.41-1.18-.47-1.98-.32.78-.76,1.44-1.33,2-.56.56-1.21.83-1.93.83-1.27,0-2.25-.31-2.93-.94-.68-.63-1.02-1.56-1.02-2.8,0-.54.06-1.05.18-1.51.12-.46.32-1.03.59-1.7l.7-7.73c.5-.5,1.21-.76,2.15-.76.74,0,1.16.63,1.26,1.89.08,1.03.04,1.94-.11,2.75-.15.81-.36,1.82-.61,3.05-.26,1.22-.39,2.31-.39,3.25,0,.75.36,1.13,1.09,1.13.79,0,1.47-.9,2.05-2.7.45-1.38.75-2.92.91-4.62-.01-.17-.03-.38-.04-.65,0-.26-.02-.52-.02-.77,0-.25-.01-.5-.01-.75v-.57Z"/>
    <path class="cls-2" d="m327.12,240.5l.14,3.83c0,.5-.2.95-.6,1.35-.4.4-.95.6-1.64.6-.4,0-.68-.27-.83-.82-.15-.54-.23-1.34-.23-2.39,0-2.2.08-3.92.25-5.17.17-1.25.5-2.51,1-3.79-.74-.92-1.11-1.72-1.11-2.39,0-1.4.58-2.1,1.73-2.1.59,0,1.12.41,1.57,1.23.32.57.55,1.22.7,1.98.22.1.51.16.84.16.47,0,1-.2,1.61-.6l.63-.41.51-.19c.47,0,.93.89,1.4,2.67-.14.82-.3,1.6-.47,2.36-.17.75-.37,1.66-.59,2.73-.23,1.07-.34,1.79-.35,2.15,0,.37.08.55.25.55.24,0,.54-.2.89-.6.36-.4.71-.83,1.06-1.31.35-.47.68-.91.98-1.3.3-.4.5-.6.62-.6.22,0,.34.36.34,1.07,0,1.44-.49,2.87-1.46,4.27-.97,1.41-2.09,2.1-3.34,2.07-.74,0-1.29-.39-1.66-1.16-.37-.77-.57-1.72-.58-2.83,0-2.2.38-4.28,1.13-6.25-.36.19-.75.28-1.2.28s-.76-.02-.95-.06c-.14.8-.29,1.6-.43,2.41-.15.81-.22,1.55-.22,2.25"/>
    <path class="cls-2" d="m352.22,235.22c0-.75-.33-1.13-.99-1.13s-1.37.83-2.15,2.48c-.22.48-.42.97-.58,1.48,1.67-.12,2.81-.71,3.42-1.76.19-.33.29-.69.29-1.07m-.92,3.68c.43,2.24,1.16,3.36,2.19,3.36.5,0,.95-.2,1.35-.6.4-.4.76-.83,1.08-1.3.32-.47.61-.91.84-1.31.24-.4.47-.6.68-.6s.31.36.31,1.07c0,1.49-.53,2.92-1.59,4.3-1.06,1.38-2.25,2.07-3.56,2.06-1.31-.01-2.48-1.51-3.51-4.51-.29-.84-.56-1.69-.82-2.55l-.17,4.31c0,.4-.02.79-.05,1.18-.03.39-.17.71-.41.96-.63.65-1.26.97-1.9.97-.75,0-1.13-1.02-1.13-3.05,0-2.93.26-6,.79-9.21.53-3.21,1.05-5.62,1.56-7.24.51-1.62.9-2.71,1.18-3.25.28-.55.5-.88.67-1.01l.54-.19c.2,0,.41.13.64.39.23.26.47.66.72,1.19.26.53.39,1.06.4,1.57,0,.51-.05,1.02-.19,1.51-.14.49-.32.97-.54,1.45-.22.47-.47.95-.75,1.45-.27.49-.55,1.02-.82,1.59l-.24,2.64c.56-1.53,1.39-2.56,2.48-3.08.38-.19.84-.28,1.35-.28,1.03,0,1.82.32,2.36.96.55.64.82,1.58.82,2.81s-.47,2.28-1.42,3.14c-.95.86-1.9,1.28-2.87,1.26"/>
    <path class="cls-2" d="m363.23,228.99c.34-.55.6-1.04.79-1.48.19-.44.29-.89.29-1.37s-.13-.71-.38-.71c-.56,0-1.19.75-1.87,2.26-.68,1.51-1.19,3.49-1.53,5.94.55-1.09,1.05-2,1.51-2.73.46-.73.86-1.37,1.19-1.92m-1.3,16.88c-2.3.02-3.87-1.1-4.7-3.36-.29-.8-.43-1.8-.43-3s.08-2.49.24-3.85c.32-2.73.94-5.24,1.85-7.54.47-1.17.99-2.18,1.57-3.02,1.27-1.84,2.68-2.75,4.24-2.73.69,0,1.23.25,1.63.74.4.49.59,1.2.59,2.12s-.21,1.85-.62,2.78c-.42.93-.95,1.9-1.6,2.89-.65,1-1.37,2.04-2.16,3.13-.79,1.09-1.56,2.27-2.31,3.55v1.26c0,1.17.19,2.03.58,2.58.39.55.84.82,1.35.82,1.38,0,2.6-.89,3.66-2.67.43-.73.76-1.1.99-1.1s.34.36.34,1.07-.15,1.44-.45,2.18c-.3.74-.69,1.42-1.17,2.04-.48.62-1.04,1.13-1.67,1.52-.63.4-1.27.6-1.93.6"/>
    <path class="cls-2" d="m370.92,233.49c-.84,0-1.41,1.27-1.73,3.8.34-.29.65-.56.95-.79.3-.23.56-.45.78-.66.48-.46.73-.99.75-1.57,0-.52-.25-.79-.75-.79m.41,8.86c1.25,0,2.47-.65,3.64-1.95.43-.48.79-.93,1.06-1.34.27-.41.48-.61.63-.61.22,0,.34.29.34.88s-.12,1.24-.36,1.96c-.24.72-.64,1.43-1.21,2.12-1.38,1.7-3.28,2.54-5.69,2.54-1.91,0-3.22-.9-3.91-2.7-.24-.63-.36-1.53-.36-2.7s.18-2.39.53-3.66c.35-1.27.82-2.36,1.41-3.28.59-.92,1.27-1.64,2.04-2.15.77-.51,1.59-.77,2.47-.77s1.55.28,2.03.85c.47.57.71,1.3.71,2.2s-.17,1.64-.52,2.22c-.35.58-.79,1.06-1.34,1.44-.55.39-1.15.73-1.82,1.04-.67.3-1.32.65-1.97,1.02v.79c.01.75.26,1.29.72,1.6.47.31,1,.48,1.59.5"/>
    <path class="cls-2" d="m379.67,227.61c-.43-.84-.65-1.74-.65-2.7s.12-1.76.35-2.4c.23-.64.45-1.11.66-1.41.21-.3.45-.46.72-.46.45,0,.86.44,1.23,1.31.37.87.56,1.6.56,2.18,0,1.09-.29,1.94-.88,2.56-.59.62-1.25.93-1.99.93m-.99,18.26c-1.61,0-2.41-1.96-2.41-5.88,0-2.14.2-4.07.6-5.81.63-2.68,1.34-4.02,2.12-4.02.47,0,.84.41,1.11,1.22.23.63.33,1.25.31,1.85,0,.84-.19,2.31-.58,4.43-.37,1.84-.55,2.99-.55,3.42s.09.75.25.91l.61.25c.23,0,.52-.2.88-.6.35-.4.71-.83,1.06-1.31.35-.47.68-.91.97-1.3.3-.4.5-.6.61-.6.23,0,.34.36.34,1.07,0,1.47-.57,2.9-1.7,4.29-1.13,1.39-2.34,2.08-3.63,2.06"/>
    <path class="cls-2" d="m386.01,230.09c.58,0,1.13.72,1.64,2.17.76-1.02,1.69-1.54,2.81-1.54s1.96.32,2.52.96c.56.64.84,1.54.84,2.7s-.12,2.34-.35,3.54c-.23,1.19-.4,2.05-.51,2.56-.1.51-.16.94-.16,1.27s.09.5.27.5c.24,0,.54-.2.89-.6.35-.4.71-.83,1.06-1.31.35-.47.68-.91.98-1.3.3-.4.5-.6.62-.6.22,0,.34.36.34,1.07,0,1.47-.55,2.88-1.66,4.24-1.86,1.42-3.05,2.14-3.57,2.14l-.1-.03c-1.29,0-1.93-1.34-1.93-4.02,0-1.15.09-2.21.25-3.17.17-.96.29-1.67.37-2.11.08-.44.12-.89.12-1.35,0-.76-.33-1.13-1-1.13s-1.3.64-1.91,1.93c-.6,1.29-1.01,2.62-1.22,4.01v.22c0,.71.09,1.45.25,2.2.17.75.25,1.28.25,1.57,0,.71-.68,1.41-2.05,2.11l-.55.16c-.4,0-.68-.27-.83-.82-.15-.54-.23-1.39-.23-2.55,0-2.97.09-5.12.26-6.44.24-1.97.79-3.8,1.64-5.5.29-.58.6-.88.94-.88"/>
    <path class="cls-2" d="m404.67,240.12c0-2.98,1.15-5.05,3.45-6.22-1.17-1.07-1.76-2.72-1.76-4.97,0-1.7.46-3,1.37-3.91.92-.91,2.02-1.37,3.31-1.37s2.4.44,3.35,1.32c.95.88,1.42,2.1,1.42,3.65,0,.36-.04.64-.12.86l-.29.33c-.27,0-.59-.29-.94-.86-.35-.58-.78-1.04-1.26-1.4-.49-.36-.98-.53-1.47-.53s-.92.24-1.29.72c-.37.48-.56,1.22-.56,2.22s.31,1.86.94,2.59l.38-.03h.41c.55,0,1.03.14,1.46.41.42.27.64.67.64,1.19.02.73-.52,1.21-1.61,1.41-.29.04-.58.06-.86.06s-.65-.07-1.1-.22c-.96.73-1.45,1.95-1.45,3.65-.02,1.07.31,1.95.99,2.64.68.69,1.48,1.04,2.41,1.04s1.74-.43,2.43-1.3c.69-.87,1.03-2.16,1.01-3.88,0-.52-.07-1.12-.21-1.79-.14-.67-.2-1.21-.2-1.62s.13-.68.4-.8c.27-.13.76-.19,1.5-.19s1.37-.04,1.93-.12c.55-.08.97-.18,1.25-.3.28-.12.47-.21.58-.3l.35-.13c.36,0,.53.29.54.87,0,.58-.22,1.17-.68,1.79-.46.62-.94.93-1.45.93s-1.12-.08-1.84-.25c.1.73.14,1.44.14,2.1-.02,2.83-.7,5-2.05,6.51-1.19,1.3-2.68,1.95-4.48,1.95-2.99,0-5.01-1.13-6.07-3.39-.39-.82-.58-1.7-.58-2.64"/>
    <path class="cls-2" d="m432.44,240.24c0,1.61.46,2.42,1.37,2.42.52,0,1.04-.25,1.57-.75.53-.5.96-1.32,1.28-2.45.24-1.47.49-2.82.76-4.05.26-1.24.44-2.1.54-2.58-1.35.23-2.61,1.02-3.77,2.36-1.17,1.34-1.75,3.03-1.75,5.06m2.53,9.18c-.58.15-1.09.26-1.52.35-.43.08-.79.16-1.07.22-.28.06-.49.14-.63.22l-.21.41c0,.38.18.7.54.98.36.27.72.4,1.07.37.61,0,1.21-.85,1.81-2.54m3.28-17.94c.22-.92.58-1.38,1.08-1.38.45.02.88.43,1.28,1.24.4.81.61,1.43.61,1.87-.03.86-.24,2.23-.61,4.1-.37,1.88-.89,4.31-1.57,7.31,1.06-1.07,2.1-2.46,3.13-4.18.35-.58.65-1.06.9-1.43.25-.37.45-.55.62-.55.22,0,.34.34.34,1.01,0,1.32-.57,2.86-1.7,4.62-1.13,1.76-2.52,3.13-4.16,4.12-.19.84-.4,1.63-.63,2.39-.22.75-.51,1.41-.87,1.98-.77,1.22-1.94,1.82-3.52,1.82-1.06,0-1.97-.4-2.71-1.2-.75-.8-1.12-1.79-1.12-2.99,0-.65.16-1.16.49-1.54.33-.38.79-.68,1.36-.91.58-.23,1.26-.43,2.04-.6.78-.17,1.61-.38,2.49-.63.08-.36.15-.71.21-1.05.06-.35.12-.69.18-1.05-.89,1.07-1.97,1.6-3.24,1.6s-2.26-.46-2.95-1.38c-.69-.92-1.03-2.04-1.01-3.36,0-3.56.91-6.37,2.72-8.42,1.26-1.4,2.56-2.1,3.91-2.1.47,0,.97.07,1.51.22.54.15.94.31,1.22.5"/>
    <path class="cls-2" d="m446.35,240.5l.14,3.83c0,.5-.2.95-.6,1.35s-.95.6-1.64.6c-.4,0-.68-.27-.83-.82-.15-.54-.23-1.34-.23-2.39,0-2.2.08-3.92.25-5.17.17-1.25.5-2.51,1-3.79-.74-.92-1.11-1.72-1.11-2.39,0-1.4.58-2.1,1.73-2.1.59,0,1.12.41,1.57,1.23.32.57.55,1.22.7,1.98.23.1.51.16.84.16.47,0,1-.2,1.62-.6l.63-.41.51-.19c.47,0,.93.89,1.4,2.67-.15.82-.3,1.6-.47,2.36-.17.75-.37,1.66-.59,2.73-.23,1.07-.34,1.79-.35,2.15,0,.37.08.55.25.55.24,0,.54-.2.89-.6.35-.4.71-.83,1.06-1.31.35-.47.68-.91.98-1.3.3-.4.5-.6.61-.6.23,0,.34.36.34,1.07,0,1.44-.49,2.87-1.46,4.27-.97,1.41-2.09,2.1-3.34,2.07-.74,0-1.3-.39-1.66-1.16-.37-.77-.56-1.72-.58-2.83,0-2.2.38-4.28,1.13-6.25-.35.19-.75.28-1.19.28s-.76-.02-.95-.06c-.15.8-.29,1.6-.43,2.41-.14.81-.22,1.55-.22,2.25"/>
    <path class="cls-2" d="m463.36,239.46c.27-.76.41-1.49.41-2.2s-.18-1.07-.53-1.07c-.15,0-.27.13-.36.41-.1.27-.15.53-.15.79,0,.84.21,1.53.63,2.07m.22,3.64c-1.27,1.95-2.79,2.92-4.57,2.92s-3.1-.59-3.99-1.77c-.89-1.18-1.32-2.66-1.3-4.42-.02-2.49.59-4.64,1.81-6.44,1.22-1.8,2.82-2.7,4.8-2.7.9,0,1.62.15,2.17.44.95.5,1.42.98,1.42,1.42,0,.34-.66.51-1.99.52-1.32.01-2.43.61-3.33,1.79-.89,1.18-1.34,2.68-1.34,4.48,0,.94.21,1.73.64,2.37.42.64,1.03.96,1.81.96s1.42-.21,1.94-.63c-1.14-1.01-1.71-2.46-1.71-4.37-.01-1.01.26-1.92.83-2.75.57-.83,1.3-1.25,2.19-1.26.89,0,1.53.31,1.92.96.39.65.58,1.48.58,2.5s-.19,2.09-.55,3.22h.14c.71-.02,1.32-.35,1.83-.97.19-.25.36-.47.49-.66l.42-.28c.23,0,.34.34.34,1.04,0,1.28-.29,2.24-.87,2.87-.58.64-1.22.96-1.92.96s-1.29-.06-1.77-.19"/>
    <path class="cls-2" d="m473.42,243.86c.61,0,1.18-.22,1.71-.66-.27-.29-.55-.56-.82-.8-.27-.24-.54-.36-.79-.36s-.48.08-.65.24c-.18.16-.26.39-.26.71s.09.54.26.68l.55.21Zm5.62-17.19c0,2.41-.61,4.46-1.83,6.16.23.4.48.78.77,1.15.29.37.56.76.82,1.18.58,1,.87,2.21.87,3.61v.19c-.02,1.36-.26,2.57-.75,3.61h.31c.4,0,.8-.22,1.19-.66.39-.44.76-.92,1.11-1.45.35-.52.66-1,.93-1.44.27-.44.5-.66.68-.66.24,0,.36.36.36,1.07,0,1.53-.46,2.98-1.36,4.35-.91,1.37-2.12,2.07-3.63,2.09-.5,0-1.05-.24-1.64-.72-1.09.78-2.33,1.16-3.71,1.16-1,0-1.73-.32-2.19-.97-.47-.65-.7-1.51-.7-2.58s.3-1.87.9-2.41c.6-.53,1.28-.8,2.04-.8s1.35.17,1.8.5c.44.33.89.7,1.34,1.1.14-.5.21-1.06.21-1.67s-.13-1.17-.4-1.68c-.26-.51-.55-1.02-.87-1.52-.31-.5-.6-1.03-.87-1.57s-.4-1.1-.4-1.67.06-1.01.19-1.32c.13-.31.29-.6.47-.86.19-.26.38-.51.59-.74.87-.92,1.3-2,1.28-3.24,0-.99-.32-1.48-.96-1.48s-1.33.8-2.17,2.39c-.82,1.59-1.55,3.56-2.19,5.91-1.12,4.02-1.97,8.78-2.53,14.27-.18,1.72-.32,3.05-.43,4.01-.11.95-.23,1.59-.36,1.92-.13.32-.32.49-.58.49-.4,0-.8-.23-1.19-.68-.39-.45-.64-.85-.73-1.2-.1-.35-.14-.7-.14-1.05,0-3.62.47-7.76,1.4-12.4.93-4.64,2.13-8.48,3.59-11.52,1.65-3.46,3.37-5.19,5.14-5.19,1.11,0,2,.37,2.66,1.12.67.74,1,1.81,1,3.19"/>
    <path class="cls-2" d="m74.44,16.43l-3.81-.06c-6.54.19-12.96,1.19-19.26,3-6.3,1.82-11.72,4.07-16.27,6.76-4.55,2.7-8.21,5.7-10.96,9.02-2.75,3.32-4.09,6.53-4,9.62.2,6.87,4.87,12.17,14.01,15.91.07,2.36-.14,5.15-.61,8.34-.47,3.2-.95,5.14-1.44,5.83-9.07-3.4-15.9-7.66-20.47-12.77-4.58-5.11-6.95-10.56-7.12-16.36-.31-10.53,5.15-19.83,16.38-27.9,11.22-8.07,26.51-13.2,45.87-15.39,8.89-.88,17.74-1.44,26.53-1.69,8.8-.25,15.76-.42,20.9-.52,5.13-.09,8.94-.17,11.42-.24l-11.42,18.16c-5.3.15-11.34-.05-18.13-.62-6.79-.57-11.46-.9-14-.99-1.01,6.23-2.31,14.74-3.92,25.55-1.61,10.81-2.63,17.57-3.06,20.29,4.78-.7,9.69-1.12,14.74-1.27,5.05-.14,10.88-.14,17.48,0,2.09-.06,3.16.89,3.22,2.87.06,1.97-.77,4.11-2.48,6.41-1.71,2.3-3.64,3.48-5.78,3.55-13.25.38-23.06.95-29.41,1.69-3.54,20.05-7.74,35.02-12.59,44.91-4.21,8.57-9.03,14.8-14.45,18.67-6.3,4.46-13.77,6.82-22.4,7.07-10.55.3-17.8-3.77-21.77-12.22-1.02-2.17-1.57-4.32-1.63-6.46-.25-8.78,5.62-13.35,17.64-13.69-.52,3.4-.72,7.13-.61,11.22.12,4.08.88,7.2,2.3,9.36,1.42,2.16,3.7,3.25,6.87,3.27,3.16.02,6.05-1.58,8.67-4.82,2.62-3.23,5.02-7.83,7.22-13.82,3.71-10.13,7.31-23.34,10.8-39.61l-7.22,2.32c-.28,0-.79.04-1.52.09-.73.05-1.49-.22-2.27-.82-.78-.6-1.19-1.6-1.23-3.01-.04-1.41.18-2.65.66-3.74.69-1.48,2.15-2.75,4.37-3.8,2.23-1.05,5.47-2.31,9.71-3.79.74-3.51,1.4-6.73,1.96-9.65.57-2.92,1.07-5.48,1.52-7.69.44-2.21.82-3.97,1.12-5.27s.64-2.84,1.01-4.59c.37-1.76.71-3.19,1.02-4.3.31-1.11.64-2.26,1-3.45.72-2.33,1.38-4.04,1.97-5.13,2.86-4.53,6.01-7.95,9.44-10.25"/>
    <path class="cls-2" d="m120.79,76.91l8.83-1.2c1.43-.03,13.73-1.16,15.1-.22,4.88,3.39-14.55,5.78-17.81,12.87-7.47,16.06-11.18,25.71-11.12,28.95,0,.05,0,.23-.03.55-.02.32-.01.57.01.74s.07.4.13.7c.05.29.13.51.23.66.35.44.85.65,1.49.63,1.28-.02,5.15-3.01,11.6-8.95,6.46-5.94,10.86-10.56,13.21-13.85l.16,8.25c-17.23,17.86-28.9,26.86-35,26.97-2.16.04-3.81-.9-4.93-2.82-1.12-1.92-1.7-3.81-1.73-5.68-.04-1.86.29-4.02.99-6.47.69-2.45,1.64-5.25,2.83-8.42,1.2-3.17,2.31-6.04,3.35-8.61,1.03-2.57,2.17-5.36,3.42-8.35,1.25-3,1.97-4.74,2.15-5.24-2.75,2.9-5.95,6.08-9.6,9.54-3.65,3.46-7.07,6.89-10.25,10.29l-.16-8.25,14.69-15.83c-6.03-1.36-9.96-3.6-11.79-6.71-.41-.63-.61-1.19-.62-1.68-.06-3.44,1.18-6.48,3.74-9.14,2.56-2.65,6-4.02,10.33-4.1,2.21-.04,3.35,1.24,3.39,3.84.03,1.52-.38,3.19-1.23,5-.85,1.81-1.89,3.05-3.1,3.71,2.3,1.97,6.21,2.91,11.72,2.8"/>
    <path class="cls-2" d="m151.22,109.47c.05,7.37,2.48,11.04,7.3,11.01,2.07-.01,4.61-1.11,7.62-3.29,3.01-2.18,5.74-4.58,8.18-7.2l8.25-36.31c-5.32.03-10.45,1.96-15.39,5.77-4.95,3.82-8.85,8.48-11.72,14-2.87,5.52-4.29,10.86-4.25,16.02m-4.21,22.87c-5.91.04-9.57-4.09-11-12.38-.31-2.01-.47-4.1-.48-6.26-.04-5.35,1.26-10.77,3.88-16.24,2.62-5.47,6.1-10.36,10.42-14.66,4.33-4.3,9.52-7.82,15.58-10.56,6.06-2.74,12.26-4.13,18.61-4.17,3.1-.02,7.24.76,12.41,2.35-.05.35-.52,2.6-1.43,6.75-.91,4.16-1.82,8.4-2.72,12.73-2.48,11.86-3.71,19.21-3.7,22.06.02,2.85.76,4.27,2.24,4.26,3.25-.02,10.74-6.31,22.46-18.86l.05,8.25c-7.43,7.76-14.51,14.12-21.25,19.08-6.73,4.95-11.23,7.44-13.5,7.45-3.74.03-5.63-3.18-5.67-9.62-.01-2.11.16-4.5.54-7.15-3.51,4.64-7.61,8.62-12.28,11.94-4.68,3.32-9.4,5-14.18,5.03"/>
    <path class="cls-2" d="m217.14,132.05c-5.75-.12-8.55-4.3-8.38-12.55.06-2.8.46-5.52,1.2-8.16,3.18-11.09,7.53-24.07,13.05-38.95.22-1.22,4.22-1.76,11.99-1.6l2.58.05c0,.1-1.08,3.3-3.22,9.59-6.44,18.89-9.7,30.09-9.77,33.63-.07,3.54,1.54,5.34,4.84,5.4,2.8.06,6.31-1.07,10.52-3.4,4.2-2.32,6.67-4.19,7.39-5.6l8.67-30.48c1.17-4.15,2.7-6.68,4.58-7.57,1.44-.71,3.74-1.03,6.89-.96l5.02.1c-6.71,22.42-10.68,36.12-11.92,41.11-.47,3.72-.71,5.96-.73,6.69-.02.74.09,1.24.3,1.52.22.28.72.42,1.5.44,2.51.05,11.52-7.36,27.03-22.22l-.17,8.25c-1.2,1.06-3.28,2.92-6.24,5.59-2.96,2.67-5.22,4.68-6.77,6.05-1.55,1.37-3.64,3.08-6.27,5.14s-4.81,3.61-6.56,4.66c-4.53,2.71-8.23,4.03-11.08,3.98-4.23-.09-6.28-3.35-6.15-9.78.05-2.7.35-4.98.88-6.84-11.59,10.77-21.32,16.08-29.19,15.91"/>
    <path class="cls-2" d="m97.61,232.35l.1,6.86c.19,4.98.98,8.38,2.38,10.21,1.44,1.83,3.45,2.69,6.02,2.59,2.57-.1,4.8-.88,6.71-2.35,1.91-1.47,3.54-3.49,4.89-6.06,1.35-2.57,2.54-5.24,3.55-8.03,1.02-2.78,1.89-5.94,2.62-9.48,1.04-4.77,1.84-9.08,2.41-12.94.57-3.86.89-6.02.98-6.48l6.53-43.49c.35-2.91,6.12-4.58,17.31-5-1.09,11.68-2.45,20.89-4.08,27.61,0,.2-.76,4.81-2.31,13.82-2.91,17.34-5.26,28.7-7.04,34.05,1.63,4.01,4.66,7.3,9.08,9.88,4.43,2.58,9.53,3.76,15.3,3.54,5.77-.22,10.25-2.37,13.43-6.45,3.18-4.09,4.66-9.05,4.44-14.89-.22-5.84-2.1-11.68-5.63-17.52-3.53-5.84-7.97-10.11-13.32-12.81l-.33-8.84c6.9-.61,12.49-2.63,16.77-6.05,4.28-3.41,6.32-7.63,6.13-12.66-.55-14.47-12.9-21.25-37.06-20.34-7.89.3-15.75,2.35-23.61,6.15-8.91,4.25-15.01,9.23-18.31,14.95-1.86,3.27-2.73,6.64-2.6,10.09.21,5.74,4.5,9.9,12.85,12.48.17,4.52-.26,8.76-1.28,12.71-5.77-1.56-11.01-4.21-15.74-7.95-5.2-4.23-7.92-9.34-8.14-15.33-.23-5.99,1.37-11.62,4.78-16.89,3.42-5.26,8.04-9.73,13.86-13.41,12.49-7.84,27.23-12.08,44.22-12.72,15.16-.57,26.86,2.42,35.1,8.97,5.98,4.71,9.13,11.12,9.44,19.25.15,3.96-.59,7.42-2.2,10.38-1.62,2.96-3.37,5.31-5.23,7.06-4.23,4.02-10.36,6.24-18.39,6.64,9.95,4.61,17.46,10.2,22.52,16.77,5.06,6.57,7.7,12.72,7.92,18.46.22,5.74-.6,10.54-2.44,14.39-1.84,3.86-4.42,7.02-7.74,9.48-6.74,5.08-14.62,7.79-23.65,8.13-9.03.34-16.17-.73-21.44-3.2-5.26-2.47-9.63-6.39-13.09-11.75-4.55,6.32-9,10.74-13.37,13.24-4.36,2.5-9.19,3.86-14.48,4.05-5.04.19-9.89-1.03-14.58-3.65-2.24-1.24-4.1-3-5.59-5.28-1.49-2.28-2.29-4.85-2.39-7.69-.25-6.65,4.63-10.16,14.65-10.54"/>
    <path class="cls-2" d="m258.11,170.13c-.14-4.67-2.28-6.95-6.42-6.83-4.15.12-6.15,2.64-6.01,7.57.08,2.59.85,5.25,2.33,7.98,1.47,2.73,3.43,4.87,5.87,6.43.97-1.7,1.93-4.06,2.89-7.06.95-3,1.4-5.7,1.33-8.08m-5.08-25.25c.04,1.47-.49,2.58-1.58,3.32-10.13.29-17.78,3.41-22.95,9.35-4.83,5.63-7.15,11.86-6.95,18.69.2,6.83,1.87,12.24,5.01,16.21,3.14,3.98,6.9,5.9,11.28,5.78,4.37-.13,8.53-2.53,12.47-7.22-3.88-2.28-6.91-5.34-9.08-9.19-2.18-3.85-3.32-7.8-3.43-11.84-.12-4.04,1.01-7.35,3.38-9.94,2.37-2.58,5.87-3.94,10.5-4.08,4.63-.13,8.04,1.02,10.22,3.45,2.18,2.43,3.33,5.45,3.43,9.05.21,7.42-1.96,14.06-6.53,19.94,1.28.47,2.39.69,3.3.67.92-.02,1.86-.27,2.84-.73.98-.46,2.09-1.25,3.33-2.38,1.24-1.13,2.33-2.19,3.27-3.18.94-.99,2.3-2.48,4.07-4.46,1.78-1.98,3.28-3.6,4.52-4.86l.24,8.38c-4.09,4.59-7.42,7.87-9.99,9.82-2.57,1.96-5.11,2.97-7.63,3.04-2.52.07-4.83-.22-6.94-.87-3.78,4.89-8.31,8.92-13.59,12.1-5.29,3.18-10.8,4.85-16.55,5.01-8.24.24-14.23-3.48-17.96-11.15-2.11-4.31-3.24-9.18-3.4-14.62-.36-12.34,3.75-22.2,12.33-29.56,8.57-7.36,20.13-11.25,34.68-11.67,1.02-.03,1.59.28,1.71.94"/>
    <path class="cls-2" d="m346.28,172.6l.18,8.54c-7.92,8.4-14.94,15.09-21.08,20.07-6.13,4.98-10.24,7.5-12.33,7.54-3.82.08-5.77-2.01-5.86-6.28-.09-4.27.76-9.38,2.54-15.34,1.79-5.96,3.58-11.36,5.39-16.2,1.8-4.84,2.69-8.07,2.66-9.7-.03-1.63-.35-2.81-.95-3.56-.6-.75-1.31-1.12-2.12-1.1-2.9.06-5.99,2.15-9.26,6.25-3.28,4.11-6.17,9.06-8.7,14.86-5.25,12-8.66,21.81-10.23,29.41l-14.58.3c-.06-5.49,1.3-14.62,4.09-27.38,2.79-12.76,5.31-22.19,7.58-28.29.91-2.46,2.27-4.11,4.06-4.96,1.79-.85,4.21-1.31,7.26-1.37l5.12-.11c-3.45,12.88-6,22.16-7.66,27.84,3.27-6.42,8.08-12.98,14.4-19.67,3.09-3.22,6.47-5.88,10.14-7.99,3.67-2.11,7.16-3.2,10.47-3.26,4.99-.11,7.55,2.81,7.67,8.76.06,2.85-1.59,9.63-4.96,20.35-3.37,10.72-5.04,16.62-5.02,17.72.02,1.1.36,1.63.99,1.62.63-.01,1.47-.37,2.5-1.08,1.03-.71,3.99-3.49,8.87-8.34,4.89-4.85,7.83-7.72,8.83-8.61"/>
    <path class="cls-2" d="m389.32,149.73c-.21-.71-1.12-1.37-2.73-1.99-1.61-.62-3.1-.92-4.47-.91-4.38.05-8.61,2.1-12.69,6.15-4.08,4.06-7.29,8.95-9.63,14.69-2.33,5.74-3.47,11.2-3.42,16.39.06,6.45,2.18,9.66,6.36,9.62,3.26-.03,7.31-1.92,12.16-5.65,4.85-3.73,7.51-6.64,8-8.73l6.42-29.56Zm-24.89,52.81c-5.51,3.64-9.66,5.47-12.43,5.5-2.78.03-4.9-.47-6.39-1.5-1.49-1.02-2.6-2.4-3.32-4.12-1.26-3.14-1.91-6.99-1.95-11.57-.05-4.57,1.14-9.88,3.58-15.93,2.43-6.05,5.56-11.5,9.38-16.37,3.82-4.87,8.19-8.91,13.12-12.14,4.93-3.23,9.31-4.86,13.12-4.9,3.82-.04,7.54.46,11.16,1.49l9.79-36.31c1.36-5.86,2.73-9.28,4.09-10.25,1.87-1.39,3.78-2.16,5.74-2.31,1.96-.15,4.06-.23,6.3-.25l2.67-.03c-.19,1.73-1.04,5.27-2.57,10.62-3.06,9.43-7.27,24.3-12.64,44.61-5.37,20.3-8.03,32.42-7.99,36.33.02,1.88.21,3.15.58,3.81.36.66,1.04.98,2.03.97,1,0,3.04-1.5,6.14-4.48,3.1-2.98,7.65-7.67,13.64-14.09l.08,8.54c-.7.72-2,2.06-3.89,4.01-1.89,1.95-3.29,3.39-4.19,4.31l-4.01,4c-1.71,1.8-3.08,3.16-4.12,4.08-1.04.92-2.31,2.08-3.82,3.47-1.51,1.39-2.77,2.46-3.78,3.2-1.01.75-2.1,1.51-3.26,2.28-2.17,1.44-4,2.17-5.47,2.19-4.17.04-6.3-3.32-6.36-10.08-.03-3.25.37-6.66,1.19-10.23-5.43,6.46-10.9,11.51-16.41,15.14"/>
    <path class="cls-2" d="m434.53,162.3c3.84,5,8.11,7.51,12.79,7.53,2.95.01,5.52-1.42,7.69-4.31,2.18-2.88,3.27-5.93,3.29-9.13.02-3.2-.57-5.35-1.76-6.45-1.19-1.1-2.92-1.65-5.19-1.66-2.26-.01-4.38.49-6.35,1.49-1.96,1.01-3.64,2.27-5.02,3.79-2.66,2.99-4.48,5.9-5.46,8.74m41.87,9.88l-.04,8.38c-8.13,8.86-15.39,15.58-21.78,20.17-6.38,4.59-12.45,6.87-18.2,6.85-11.5-.05-18.66-3.82-21.48-11.31-1.05-2.95-1.57-6.51-1.55-10.68.04-7.42,1.62-14.49,4.76-21.21,3.14-6.72,7.63-12.24,13.48-16.55,5.85-4.32,12.33-6.46,19.46-6.42,12.01.06,18,4.56,17.95,13.5-.03,5.79-2.4,10.83-7.1,15.1-4.71,4.27-9.98,6.39-15.84,6.36-2.34-.01-4.78-.71-7.32-2.09-2.54-1.39-4.7-3.45-6.46-6.21-2.21,4.56-3.33,9.03-3.35,13.4-.06,11.74,4.19,17.63,12.74,17.67,2.24.01,5.01-1.04,8.3-3.16,3.3-2.12,6.21-4.35,8.74-6.7,2.53-2.35,5.74-5.46,9.63-9.33,3.89-3.87,6.57-6.46,8.06-7.77"/>
    <path class="cls-6" d="m408.59,59.8c0,28.3-22.98,51.24-51.32,51.24s-51.32-22.94-51.32-51.24,22.98-51.24,51.32-51.24,51.32,22.94,51.32,51.24"/>
    <path class="cls-11" d="m408.59,59.8h-.35c0,14.06-5.71,26.78-14.93,35.99-9.23,9.21-21.97,14.91-36.04,14.91s-26.82-5.7-36.04-14.91c-9.23-9.21-14.93-21.93-14.93-35.99s5.71-26.78,14.93-35.99c9.23-9.21,21.97-14.91,36.04-14.91s26.82,5.7,36.04,14.91c9.23,9.21,14.93,21.93,14.93,35.99h.69c0-28.49-23.13-51.58-51.67-51.58s-51.67,23.09-51.67,51.58,23.13,51.58,51.67,51.58,51.67-23.09,51.67-51.58h-.35Z"/>
    <path class="cls-7" d="m358.33,110.88s-3.35-5.78-4.34-7.22c-.99-1.44-9.52-6.16-10.51-7.45-.99-1.29-7.16-3.57-8.6-3.35-1.45.23-6.78-.38-7.69,1.29-.91,1.67-2.97,4.87-2.97,4.87,0,0,7.45,5.45,12.99,7.68,5.49,2.21,11.49,3.58,21.13,4.18"/>
    <path class="cls-11" d="m358.33,110.88l.6-.35s-3.34-5.76-4.37-7.27c-.4-.55-1.12-1.07-2.1-1.77-1.46-1.01-3.42-2.24-5.11-3.33-.84-.54-1.62-1.06-2.22-1.48-.59-.42-1.04-.8-1.1-.9-.38-.47-.95-.83-1.68-1.23-1.09-.59-2.5-1.17-3.84-1.62-1.35-.45-2.56-.77-3.4-.78l-.35.02h0c-.56.1-2.31.01-3.97.1-.84.05-1.68.13-2.41.34-.72.21-1.41.52-1.8,1.21-.44.81-1.18,2.02-1.81,3.03-.63,1-1.14,1.79-1.14,1.8-.2.31-.12.72.17.93.03.01,7.46,5.47,13.14,7.77,5.56,2.25,11.67,3.63,21.34,4.23.26.01.5-.11.63-.33v-.71s-.59.35-.59.35l.04-.69c-9.59-.59-15.49-1.94-20.91-4.13-2.69-1.09-5.92-2.99-8.45-4.62-1.27-.82-2.36-1.56-3.15-2.1-.78-.54-1.24-.88-1.24-.88l-.41.56.58.37s2.06-3.19,2.99-4.91c.06-.15.38-.39.96-.54.85-.24,2.12-.31,3.3-.32,1.19-.02,2.25.02,2.93-.08h.13c.67-.02,2.55.49,4.25,1.16.85.33,1.68.71,2.34,1.06.65.34,1.14.72,1.24.86.4.49,1.1.98,2.08,1.66,1.45.98,3.41,2.2,5.1,3.3.84.55,1.62,1.07,2.21,1.51.59.43,1.02.83,1.09.95.47.68,1.56,2.5,2.52,4.11.96,1.62,1.79,3.06,1.8,3.06l.6-.35.04-.69-.04.69Z"/>
    <path class="cls-9" d="m305.51,112.4l-2.48.55c-1.35-.03-2.43-1-2.4-2.18l1.22-4.2c.02-1.18,1.14-2.11,2.49-2.09h.28c1.35.03,2.43,1,2.4,2.18l1.06,4.24c-.02,1.18-1.22,1.51-2.57,1.48"/>
    <path class="cls-11" d="m305.51,112.4l-.15-.67-2.48.55.15.67v-.69c-1.01-.02-1.72-.74-1.71-1.45h0s-.69-.04-.69-.04l.66.19,1.22-4.2.03-.18c0-.71.72-1.4,1.74-1.41h.32c1.03.03,1.74.75,1.73,1.46v.03s.02.18.02.18l1.06,4.24.67-.17h-.69c-.03.32-.09.39-.37.55-.28.15-.79.24-1.38.24h-.13l-.16.02.15.67v.69s.14,0,.14,0c.71,0,1.4-.08,2.01-.39.61-.29,1.12-.96,1.11-1.77l-.02-.18-1.06-4.24-.67.17h.69s0-.04,0-.04c-.01-1.61-1.44-2.8-3.08-2.83h-.28s-.01.68-.01.68l.02-.69h-.08c-1.63,0-3.08,1.15-3.12,2.76h.69s-.66-.18-.66-.18l-1.22,4.2-.03.17v.06c.01,1.61,1.43,2.8,3.08,2.83l.16-.02,2.48-.55-.15-.67v.69s0-.69,0-.69Z"/>
    <path class="cls-9" d="m303.71,65.7c-.15,2.74,1.43,5.06,3.51,5.17,2.09.11,3.9-2.03,4.04-4.77.14-2.75-1.43-5.06-3.52-5.17-2.09-.11-3.89,2.03-4.04,4.77"/>
    <path class="cls-11" d="m303.71,65.7l-.69-.04v.39c0,1.43.41,2.74,1.13,3.75.72,1,1.79,1.7,3.04,1.76h.19c1.26,0,2.39-.65,3.19-1.63.8-.99,1.31-2.32,1.39-3.79v-.39c0-1.43-.41-2.74-1.14-3.75-.72-1-1.79-1.7-3.04-1.76h-.19c-1.26,0-2.39.65-3.19,1.63-.8.99-1.31,2.32-1.39,3.79l.69.04.69.04c.06-1.2.48-2.26,1.08-2.99.6-.74,1.35-1.13,2.11-1.13h.11c.76.04,1.45.46,1.99,1.2.54.73.88,1.78.88,2.94v.31c-.07,1.2-.49,2.26-1.09,2.99-.6.74-1.35,1.13-2.11,1.13h-.11c-.75-.04-1.45-.46-1.99-1.2-.54-.73-.88-1.78-.88-2.94v-.31s-.68-.04-.68-.04Z"/>
    <path class="cls-9" d="m302.91,74.54c-.14,2.62,1.35,4.83,3.33,4.94,1.98.1,3.7-1.94,3.84-4.56.14-2.62-1.36-4.83-3.34-4.93-1.98-.1-3.7,1.94-3.83,4.56"/>
    <path class="cls-11" d="m302.91,74.54l-.69-.04v.37c0,1.37.39,2.63,1.08,3.59.69.96,1.71,1.63,2.91,1.69h.18c1.21,0,2.29-.63,3.05-1.57.77-.95,1.26-2.22,1.33-3.64v-.37c0-1.37-.39-2.63-1.08-3.59-.69-.96-1.71-1.63-2.91-1.69h-.18c-1.21,0-2.29.63-3.05,1.57-.77.95-1.26,2.22-1.33,3.64l.69.04.69.04c.06-1.14.46-2.15,1.03-2.84.57-.7,1.27-1.07,1.98-1.07h.11c.7.04,1.35.43,1.86,1.13.5.69.83,1.68.83,2.79v.3c-.07,1.14-.47,2.15-1.03,2.84-.57.7-1.27,1.07-1.98,1.07h-.11c-.7-.04-1.35-.43-1.86-1.13-.5-.69-.83-1.68-.83-2.79v-.3s-.68-.04-.68-.04Z"/>
    <path class="cls-9" d="m302.89,82.8c-.12,2.35,1.21,4.33,2.99,4.43,1.78.09,3.32-1.74,3.44-4.09.12-2.35-1.21-4.33-2.99-4.43-1.78-.09-3.32,1.74-3.44,4.09"/>
    <path class="cls-11" d="m302.89,82.8l-.69-.04v.34c0,1.24.35,2.39.99,3.26.63.87,1.57,1.49,2.66,1.55h.16c1.11,0,2.1-.58,2.79-1.44.7-.86,1.14-2.02,1.21-3.31v-.34c0-1.24-.35-2.39-.98-3.27-.63-.87-1.57-1.49-2.66-1.55h-.16c-1.11,0-2.1.58-2.79,1.44-.7.86-1.14,2.02-1.21,3.31l.69.04.69.04c.05-1.01.41-1.9.9-2.51.5-.61,1.11-.93,1.72-.93h.09c.6.04,1.16.37,1.61.98.44.61.73,1.48.73,2.46v.26c-.06,1.01-.41,1.9-.91,2.51-.5.61-1.11.93-1.72.93h-.09c-.6-.03-1.16-.37-1.61-.98-.44-.61-.73-1.48-.73-2.46v-.26s-.68-.04-.68-.04Z"/>
    <path class="cls-9" d="m302.46,90.32c-.09,2.35,1.27,4.32,3.05,4.39,1.78.07,3.29-1.78,3.39-4.14s-1.27-4.32-3.05-4.39c-1.78-.07-3.29,1.78-3.39,4.14"/>
    <path class="cls-11" d="m302.46,90.32l-.69-.03v.26c0,1.26.37,2.42,1.01,3.3.64.88,1.59,1.5,2.7,1.54h.12c1.12,0,2.11-.59,2.8-1.46.69-.88,1.13-2.05,1.18-3.34v-.26c0-1.26-.37-2.42-1.01-3.31-.64-.88-1.59-1.5-2.7-1.54h-.12c-1.12,0-2.11.59-2.8,1.46-.69.88-1.13,2.05-1.18,3.34l.69.03.69.03c.04-1.02.39-1.92.88-2.53.5-.62,1.1-.94,1.72-.94h.07c.61.03,1.18.36,1.64.98.45.62.75,1.5.75,2.49v.2c-.04,1.02-.39,1.92-.88,2.53-.5.62-1.1.94-1.72.94h-.07c-.61-.03-1.18-.36-1.64-.98-.45-.62-.75-1.5-.75-2.49v-.2s-.69-.03-.69-.03Z"/>
    <path class="cls-9" d="m302.48,97.07c-.07,2.05,1.13,3.75,2.68,3.8,1.55.05,2.86-1.57,2.93-3.62.07-2.05-1.13-3.75-2.68-3.8-1.55-.05-2.86,1.57-2.93,3.62"/>
    <path class="cls-11" d="m302.48,97.07l-.69-.02v.19c0,1.12.33,2.16.91,2.95.57.79,1.44,1.35,2.44,1.38h.09c1.01,0,1.9-.53,2.51-1.31.62-.78.99-1.83,1.03-2.97v-.19c0-1.12-.33-2.16-.9-2.95-.57-.79-1.44-1.35-2.44-1.38h0s-.1,0-.1,0c-1.01,0-1.9.54-2.51,1.32-.62.78-.99,1.82-1.03,2.97l.69.02.69.02c.03-.87.32-1.64.74-2.16.42-.53.92-.79,1.43-.79h.05s0,0,0,0c.5.02.98.29,1.37.81.38.52.64,1.28.64,2.13v.15c-.03.87-.32,1.64-.74,2.16-.42.53-.92.79-1.43.79h-.05c-.5-.02-.98-.29-1.37-.81-.39-.52-.64-1.28-.64-2.13v-.14s-.69-.02-.69-.02Z"/>
    <path class="cls-12" d="m310.95,106.66l-5.69-2.03c-.27-.1-.57-.11-.84-.05l-5.87,1.41c-1.03.25-2.01-.65-1.98-1.81l.1-3.42c.03-1.16,1.06-1.95,2.07-1.6l5.92,2.06c.27.1.57.11.84.04l5.64-1.4c1.03-.26,2.02.64,1.99,1.81l-.1,3.38c-.03,1.16-1.07,1.95-2.08,1.59"/>
    <path class="cls-11" d="m310.95,106.66l.23-.65-5.69-2.03c-.24-.08-.48-.13-.73-.13l-.51.06-5.87,1.41-.18.02c-.44,0-.94-.45-.94-1.1v-.03s0,0,0,0l.1-3.41c.02-.63.47-1.01.89-1.01l.26.05,5.92,2.06.72.12.52-.06,5.64-1.4.19-.02c.44,0,.94.45.94,1.11v.04l-.1,3.38c-.02.63-.47,1.01-.89,1.01l-.27-.05-.23.65-.23.65.73.13c1.24,0,2.24-1.05,2.27-2.35l.1-3.38v-.08c0-1.35-1.01-2.47-2.32-2.49l-.52.06-5.64,1.4-.19.02-.26-.05-5.92-2.06-.72-.12c-1.24,0-2.24,1.05-2.27,2.35l-.1,3.42h0s0,.08,0,.08c0,1.35,1.01,2.47,2.32,2.49l.51-.06,5.87-1.41.18-.02.27.05,5.69,2.03.23-.65Z"/>
    <path class="cls-12" d="m307.3,102.49c.14,1.52-.86,2.85-2.24,2.98-1.38.13-2.61-1-2.76-2.51-.14-1.52.86-2.85,2.24-2.98,1.38-.13,2.61,1,2.75,2.51"/>
    <path class="cls-11" d="m307.3,102.49l-.69.06v.22c0,1.09-.73,1.93-1.62,2.01h-.15c-.89.02-1.74-.77-1.85-1.89v-.22c0-1.09.73-1.93,1.62-2.01h.15c.89-.02,1.74.77,1.85,1.89l.69-.06.69-.06c-.16-1.75-1.53-3.14-3.23-3.15h-.28c-1.69.18-2.89,1.69-2.88,3.39l.02.35c.16,1.75,1.53,3.14,3.23,3.15h.28c1.7-.18,2.89-1.69,2.88-3.4l-.02-.35-.69.06Z"/>
    <path class="cls-9" d="m368.92,107.51l2.54.13c1.33-.25,2.22-1.4,2-2.56l-1.92-3.93c-.22-1.16-1.48-1.89-2.8-1.64l-.28.05c-1.33.25-2.22,1.4-2,2.56l-.33,4.36c.22,1.16,1.46,1.28,2.79,1.03"/>
    <path class="cls-11" d="m368.92,107.51l-.03.69,2.54.13h.16c1.47-.29,2.58-1.47,2.59-2.89l-.05-.49-.06-.17-1.92-3.93-.62.3.68-.13c-.27-1.39-1.57-2.25-2.96-2.25l-.66.06-.28.05c-1.47.28-2.58,1.46-2.59,2.88l.05.49.68-.13-.69-.05-.33,4.36v.18c.11.59.48,1.09.94,1.35.46.27.98.34,1.49.35.39,0,.78-.05,1.17-.12l-.13-.68-.03.69.03-.69-.13-.68c-.33.06-.64.1-.92.1-.37,0-.64-.07-.79-.16-.15-.1-.21-.17-.27-.42l-.68.13.69.05.33-4.36v-.18s-.03-.22-.03-.22c-.01-.64.56-1.35,1.47-1.52l.28-.05.4-.04c.85,0,1.49.51,1.6,1.13l.06.17,1.92,3.93.62-.3-.68.13.02.23c.01.64-.56,1.35-1.47,1.52l.13.68.03-.69-2.54-.13h-.16s.13.69.13.69Z"/>
    <path class="cls-9" d="m362.75,61.1c.61,2.69-.55,5.24-2.59,5.7-2.04.46-4.18-1.34-4.79-4.03-.61-2.68.55-5.24,2.59-5.7,2.04-.46,4.18,1.34,4.79,4.03"/>
    <path class="cls-11" d="m362.75,61.1l-.68.15c.1.44.15.87.15,1.28,0,.94-.24,1.79-.64,2.41-.4.63-.94,1.04-1.57,1.18l-.49.05c-1.38.03-2.99-1.39-3.47-3.56-.1-.43-.15-.87-.15-1.28,0-.94.24-1.78.64-2.41.4-.63.94-1.03,1.57-1.18l.49-.05c1.38-.03,2.99,1.39,3.47,3.56l.68-.15.68-.15c-.6-2.63-2.55-4.61-4.82-4.64-.27,0-.53.03-.8.09-1.04.23-1.88.91-2.43,1.79-.56.88-.85,1.98-.85,3.15,0,.52.06,1.05.18,1.58.6,2.63,2.55,4.61,4.82,4.64.26,0,.53-.03.8-.09,1.04-.23,1.88-.91,2.43-1.79.56-.88.85-1.98.86-3.15,0-.52-.06-1.05-.18-1.58l-.68.15Z"/>
    <path class="cls-9" d="m365.04,69.69c.58,2.57-.51,5-2.45,5.44-1.93.44-3.97-1.29-4.56-3.86-.58-2.57.51-5,2.45-5.44,1.93-.44,3.97,1.29,4.56,3.86"/>
    <path class="cls-11" d="m365.04,69.69l-.68.15c.1.42.14.83.14,1.22,0,.89-.23,1.69-.6,2.28-.38.59-.88.97-1.46,1.11l-.46.05c-1.28.03-2.81-1.31-3.27-3.38-.09-.42-.14-.83-.14-1.22,0-.89.23-1.69.6-2.28.38-.59.87-.97,1.46-1.11l.46-.05c1.28-.03,2.81,1.31,3.27,3.39l.68-.15.68-.15c-.58-2.52-2.43-4.43-4.62-4.46-.25,0-.51.03-.76.08-1,.22-1.8.87-2.33,1.72-.53.85-.81,1.9-.81,3.02,0,.5.06,1.01.17,1.53.58,2.52,2.43,4.43,4.62,4.46.25,0,.51-.03.76-.08,1-.22,1.8-.87,2.33-1.72.53-.85.81-1.9.81-3.02,0-.5-.06-1.01-.17-1.53l-.68.15Z"/>
    <path class="cls-9" d="m366.46,77.84c.52,2.3-.46,4.49-2.19,4.88-1.73.39-3.57-1.15-4.09-3.46-.52-2.3.46-4.49,2.2-4.88,1.73-.39,3.56,1.15,4.09,3.46"/>
    <path class="cls-11" d="m366.46,77.84l-.68.15c.08.37.12.73.12,1.08,0,.79-.2,1.49-.53,2.01-.33.52-.76.84-1.27.96l-.39.04c-1.1.03-2.46-1.15-2.87-2.98-.08-.37-.12-.73-.12-1.08,0-.79.2-1.49.53-2.01.33-.52.76-.84,1.27-.96l.39-.04c1.1-.03,2.46,1.15,2.87,2.98l.68-.15.68-.15c-.53-2.29-2.21-4.03-4.22-4.06l-.7.08c-.91.21-1.65.8-2.13,1.57-.49.77-.74,1.73-.74,2.75,0,.45.05.92.16,1.39.53,2.29,2.21,4.03,4.22,4.06l.7-.08c.91-.21,1.65-.8,2.13-1.57.48-.77.74-1.73.74-2.74,0-.45-.05-.92-.16-1.39l-.68.15Z"/>
    <path class="cls-9" d="m368.17,85.19c.49,2.31-.52,4.48-2.26,4.85-1.74.37-3.55-1.2-4.04-3.51-.49-2.31.52-4.48,2.26-4.85,1.74-.37,3.55,1.2,4.04,3.51"/>
    <path class="cls-11" d="m368.17,85.19l-.68.14c.07.35.11.69.11,1.02,0,.8-.21,1.52-.54,2.04-.34.53-.78.85-1.29.96l-.37.04c-1.11.03-2.46-1.16-2.85-3.02-.07-.35-.11-.69-.11-1.02,0-.8.21-1.52.54-2.04.34-.53.78-.85,1.29-.96l.37-.04c1.11-.03,2.46,1.16,2.85,3.02l.68-.14.68-.14c-.5-2.31-2.18-4.08-4.2-4.11l-.66.07c-.93.2-1.68.8-2.17,1.57-.5.78-.76,1.75-.76,2.78,0,.43.05.87.14,1.31.5,2.31,2.18,4.08,4.2,4.11l.66-.07c.93-.2,1.68-.8,2.17-1.57.5-.78.76-1.75.76-2.78,0-.43-.05-.87-.14-1.31l-.68.14Z"/>
    <path class="cls-9" d="m369.29,91.86c.42,2.01-.47,3.9-1.99,4.21-1.52.31-3.08-1.06-3.5-3.08-.42-2.01.47-3.9,1.99-4.21,1.52-.31,3.08,1.07,3.5,3.08"/>
    <path class="cls-11" d="m369.29,91.86l-.68.14c.06.29.09.57.09.85,0,.69-.18,1.3-.46,1.74-.29.45-.65.71-1.08.8l-.29.03c-.91.03-2.06-.98-2.39-2.57-.06-.29-.09-.57-.09-.85,0-.69.18-1.3.46-1.75.29-.45.65-.71,1.08-.8l.29-.03c.91-.03,2.06.98,2.39,2.57l.68-.14.68-.14c-.43-2.05-1.91-3.64-3.74-3.67l-.57.06c-.84.17-1.52.71-1.96,1.41-.45.7-.68,1.57-.68,2.49,0,.37.04.75.12,1.13.43,2.05,1.91,3.64,3.74,3.67l.57-.06c.84-.17,1.52-.71,1.96-1.41.45-.7.68-1.57.68-2.49,0-.37-.04-.75-.12-1.13l-.68.14Z"/>
    <path class="cls-12" d="m362.57,102.76l5.26-2.97c.25-.14.54-.21.82-.19l6.02.4c1.06.07,1.87-.98,1.64-2.12l-.68-3.36c-.23-1.14-1.37-1.74-2.31-1.22l-5.49,3.04c-.25.14-.54.2-.82.18l-5.79-.43c-1.06-.08-1.88.98-1.65,2.13l.67,3.32c.23,1.14,1.38,1.75,2.32,1.22"/>
    <path class="cls-11" d="m362.57,102.76l.34.6,5.26-2.97.39-.1h.06s6.02.4,6.02.4h.14c1.33,0,2.27-1.15,2.27-2.42l-.05-.53-.68-3.36c-.23-1.15-1.19-1.96-2.27-1.97-.36,0-.72.09-1.05.28l-5.48,3.04-.38.1h-.06s-5.79-.43-5.79-.43h-.16c-1.33,0-2.27,1.15-2.27,2.42l.05.53.67,3.33c.23,1.15,1.19,1.96,2.27,1.96.36,0,.73-.09,1.07-.28l-.34-.6-.34-.6-.39.1c-.37,0-.8-.3-.92-.86l-.67-3.33-.03-.25c0-.3.11-.58.28-.76l.61-.28h.06s5.79.43,5.79.43h.16c.37,0,.73-.09,1.05-.27l5.49-3.04.38-.1c.37,0,.8.3.92.86l.68,3.36.02.25c0,.3-.11.58-.28.76l-.61.29h-.05s-6.03-.4-6.03-.4h.02s-.15,0-.15,0c-.37,0-.74.1-1.07.28l-5.26,2.97.34.6Z"/>
    <path class="cls-12" d="m365.47,98.02c.12,1.52,1.33,2.67,2.72,2.56,1.38-.11,2.41-1.43,2.29-2.95-.12-1.52-1.33-2.67-2.72-2.56-1.38.11-2.41,1.43-2.29,2.95"/>
    <path class="cls-11" d="m365.47,98.02l-.69.05c.14,1.77,1.51,3.2,3.23,3.2h.23c1.72-.15,2.94-1.68,2.94-3.41v-.29c-.15-1.77-1.52-3.2-3.24-3.21h-.24s0,0,0,0c-1.72.14-2.94,1.67-2.94,3.4v.29s.7-.05.7-.05l.69-.05v-.18c0-1.11.75-1.96,1.65-2.02h.13c.89-.01,1.76.79,1.85,1.93v.19c0,1.11-.75,1.96-1.65,2.02h-.13c-.89.01-1.76-.79-1.85-1.93l-.69.05Z"/>
    <path class="cls-5" d="m340.8,91.14s-1.75,2.25-5.84,2.5c-4.09.26-6.24-1.74-6.24-1.74l-.48-7.65s2.82,1.96,6.31,1.74,5.77-2.5,5.77-2.5l.48,7.65Z"/>
    <path class="cls-11" d="m340.8,91.14l-.55-.42h0c-.14.16-1.73,2.01-5.33,2.24l-.68.02c-1.7,0-2.97-.41-3.82-.82-.42-.2-.74-.4-.95-.55l-.22-.17-.05-.04h0s-.47.5-.47.5l.69-.04-.48-7.65-.69.04-.4.57c.06.03,2.67,1.87,6.15,1.88l.59-.02c3.78-.25,6.16-2.65,6.22-2.7l-.49-.49-.69.04.48,7.65.69-.04-.55-.42.55.42.69-.04-.48-7.65c-.02-.27-.19-.51-.45-.6s-.54-.03-.73.16l-.08.07c-.42.39-2.45,2.05-5.25,2.22h-.51c-1.49.02-2.84-.39-3.82-.81-.49-.21-.88-.41-1.15-.57l-.3-.18-.09-.06-.73-.03c-.23.13-.37.38-.35.64l.48,7.65.22.46c.07.07,2.13,1.95,5.99,1.95.25,0,.5,0,.76-.02,4.35-.27,6.28-2.68,6.34-2.77l.14-.47-.69.04Z"/>
    <path class="cls-5" d="m309.95,62.13c.33,2.27-1.24,4.39-3.52,4.72-2.28.33-4.4-1.24-4.73-3.52-.33-2.27,1.24-4.39,3.52-4.72,2.28-.33,4.4,1.24,4.73,3.51"/>
    <path class="cls-11" d="m309.95,62.13l-.68.1.04.51c0,1.69-1.24,3.18-2.97,3.43l-.51.04c-1.69,0-3.18-1.24-3.44-2.97l-.04-.51c0-1.69,1.25-3.18,2.97-3.43l.51-.04c1.69,0,3.18,1.24,3.44,2.97l.68-.1.68-.1c-.36-2.41-2.43-4.15-4.81-4.15l-.71.05c-2.42.36-4.16,2.43-4.16,4.8l.05.71c.36,2.41,2.43,4.15,4.8,4.15l.71-.05c2.42-.36,4.16-2.43,4.16-4.8l-.05-.71-.68.1Z"/>
    <path class="cls-5" d="m364.47,55.89c.33,2.28-1.24,4.39-3.52,4.72-2.28.33-4.4-1.24-4.73-3.51-.33-2.28,1.24-4.39,3.52-4.72,2.28-.33,4.4,1.24,4.73,3.51"/>
    <path class="cls-11" d="m364.47,55.89l-.68.1.04.51c0,1.69-1.24,3.18-2.97,3.43l-.51.04c-1.7,0-3.19-1.24-3.44-2.97l-.04-.51c0-1.69,1.25-3.18,2.98-3.43l.51-.04c1.69,0,3.18,1.24,3.44,2.97l.68-.1.68-.1c-.36-2.41-2.43-4.15-4.81-4.15l-.71.05c-2.42.35-4.16,2.42-4.16,4.8l.05.71c.36,2.41,2.43,4.15,4.81,4.15l.71-.05c2.42-.36,4.16-2.43,4.16-4.8l-.05-.71-.68.1Z"/>
    <path class="cls-5" d="m359.48,48.13c1.5,20.01-9.27,37.13-24.05,38.24-14.79,1.11-27.99-14.22-29.49-34.23-1.5-20.01,9.86-29.94,24.64-31.05,14.79-1.11,27.4,7.03,28.9,27.04"/>
    <path class="cls-11" d="m359.48,48.13l-.69.03c.04.99.07,1.96.07,2.91-.03,22.92-12.43,34.49-25.02,34.49-12.1,0-24.77-10.7-27.21-33.5l-.69.07.69-.05c-.09-1.18-.13-2.32-.13-3.43,0-8.71,2.66-15.13,6.98-19.55,4.32-4.41,10.33-6.82,17.16-7.34.86-.06,1.71-.1,2.56-.1,6.68,0,12.71,2.03,17.26,6.32,4.54,4.29,7.65,10.89,8.35,20.18l.69-.05-.69.03.69-.03.69-.05c-.71-9.54-3.94-16.51-8.78-21.08-4.84-4.57-11.25-6.7-18.21-6.7-.88,0-1.76.03-2.66.1-7.08.53-13.45,3.05-18.04,7.75-4.6,4.69-7.38,11.53-7.37,20.51,0,1.14.04,2.32.14,3.53h0s0,.02,0,.02c2.43,23.23,15.6,34.73,28.58,34.73,6.74,0,13.38-3.12,18.29-9.17,4.92-6.05,8.11-15.01,8.11-26.71,0-.97-.02-1.96-.07-2.97h0v-.02l-.69.05Z"/>
    <path class="cls-11" d="m324.53,52.61c1.33-.1,2.5.9,2.6,2.23.1,1.33-.9,2.49-2.23,2.59-1.33.1-2.5-.9-2.6-2.23-.1-1.33.9-2.49,2.23-2.59"/>
    <path class="cls-11" d="m341.54,51.64c1.33-.1,2.5.9,2.6,2.23.1,1.33-.9,2.49-2.23,2.59-1.33.1-2.5-.9-2.6-2.23s.9-2.49,2.23-2.59"/>
    <path class="cls-11" d="m344.97,71.57c-1.16,1.02-6.16,4.96-10.35,5.15l-.6.02c-4.34.02-9.3-2.52-10.65-3.35l-.72,1.18c1.52.91,6.52,3.54,11.37,3.55l.67-.02c4.9-.3,9.9-4.42,11.17-5.48l-.9-1.05Z"/>
  </g>
  <polygon class="cls-11" points="344.11 69.96 343.52 70.45 346.7 74.24 347.28 73.75 344.11 69.96"/>
  <polygon class="cls-11" points="323.92 71.63 324.58 72.01 322.11 76.29 321.45 75.91 323.92 71.63"/>
  <g class="cls-14">
    <path class="cls-11" d="m331.55,64.72h-.66l.6.28s.04-.02.06-.28h-.66l.6.28-.37-.17.36.21.02-.03-.37-.17.36.21s.36-.51.84-.9c.49-.41,1.13-.74,1.8-.74.66,0,1.45.28,2.43,1.37l1.04-.91c-1.14-1.3-2.36-1.85-3.47-1.84-1.21,0-2.16.6-2.8,1.15-.32.28-.58.56-.75.78l-.21.28-.07.11-.04.07c-.01.05-.05.04-.07.3h1.38Z"/>
    <path class="cls-9" d="m352.88,39.9s3.18-.48,3.99.55c.82,1.03,1.43.94,1.69,3.62.26,2.68,1.01,12.68,1.01,12.68,0,0,7.07-3.56,6.72-12.61-.21-5.44-.12-13.08-6.35-21.12-4.1-5.3-10.18-8.89-19.53-8.76-5.29.08-9.58,3.32-9.58,3.32,0,0-7.35-3.03-13.68-1.61-5.78,1.29-13.5,3.13-17.97,14.37-4.47,11.24-2.34,24.89-.9,27.74,1.44,2.84,7.74,4.77,9.34,5.96,1.6,1.19-.4-15.03.39-16.99,0,0,.61-3.52,2.5-5.42,1.89-1.9,2.48-.08,2.48-.08"/>
    <path class="cls-11" d="m352.99,40.58s.16-.02.44-.05c.28-.03.65-.05,1.05-.05.43,0,.88.03,1.23.11.36.08.58.22.63.29.48.59.83.84,1.02,1.14.2.3.4.82.52,2.11.13,1.33.38,4.5.6,7.33.22,2.83.41,5.33.41,5.33l.08,1.03.92-.47c.05-.03,1.81-.91,3.58-2.93,1.77-2.01,3.54-5.18,3.54-9.65v-.67c-.22-5.41-.14-13.31-6.5-21.51-4.12-5.35-10.32-9.04-19.56-9.03h-.52c-5.56.1-9.93,3.43-9.99,3.46l.42.55.26-.64s-4.92-2.04-10.29-2.04c-1.26,0-2.54.11-3.8.39-2.89.65-6.37,1.45-9.7,3.55-3.33,2.1-6.49,5.51-8.77,11.25-2.06,5.18-2.74,10.82-2.74,15.72,0,2.98.25,5.69.61,7.87.36,2.18.8,3.8,1.25,4.71.89,1.71,2.93,2.89,4.91,3.91,1,.5,1.99.95,2.82,1.34.83.38,1.51.73,1.81.96.13.1.32.2.57.2l.6-.24.36-.65c.18-.64.21-1.55.22-2.73,0-3.4-.44-8.82-.44-11.89,0-.53.01-.98.04-1.33.02-.35.08-.6.1-.64l.03-.07v-.07s.05-.19.13-.53c.24-1.03.95-3.28,2.2-4.52.58-.59.94-.67,1.03-.66l.2.12.09.14.02.04.06-.02-.06.02h0s.06-.02.06-.02l-.06.02,1.31-.43s-.1-.3-.33-.6c-.22-.29-.67-.66-1.3-.66-.65,0-1.29.36-2.01,1.07-2.11,2.16-2.67,5.74-2.69,5.79l.68.12-.64-.26c-.12.31-.16.63-.2,1.04-.03.41-.05.89-.05,1.44,0,3.17.44,8.59.44,11.89,0,.86-.03,1.57-.1,2.02l-.1.41h.02s-.02,0-.02,0h0s.02.01.02.01h-.02s.4.25.4.25v-.45l-.4.19.4.26v-.45.42l.26-.34-.26-.07v.42l.26-.34c-.5-.37-1.2-.71-2.05-1.11-1.27-.59-2.83-1.28-4.19-2.08-1.36-.78-2.48-1.69-2.89-2.54-.33-.65-.79-2.22-1.12-4.31-.34-2.1-.59-4.74-.59-7.65,0-4.77.67-10.26,2.64-15.21,2.19-5.51,5.13-8.63,8.22-10.59,3.09-1.95,6.37-2.72,9.26-3.37,1.14-.26,2.32-.36,3.5-.36,2.51,0,4.97.48,6.78.97.91.24,1.66.49,2.18.67.52.18.8.3.8.3l.37.15.32-.24.17-.12c.84-.59,4.62-3,9-3.06h.5c8.87,0,14.54,3.44,18.47,8.49,6.08,7.86,5.99,15.25,6.2,20.72v.62c0,4.1-1.58,6.91-3.18,8.74-.8.91-1.6,1.57-2.2,2-.3.21-.54.37-.71.47l-.19.11-.06.03.31.62.69-.05s-.75-10-1.01-12.69c-.13-1.38-.37-2.16-.74-2.74-.39-.58-.76-.81-1.09-1.24-.38-.46-.89-.65-1.4-.77-.51-.12-1.05-.15-1.54-.15-.91,0-1.68.12-1.7.12l.21,1.36Z"/>
    <path class="cls-8" d="m344.75,96.96s-1.14.52-2.75,1.17c-1.3.52-3.95,1.05-3.95,1.05l-3.79-6.62s2.59-.38,4.47-.95c1.88-.58,2.14-1.38,2.14-1.38l3.88,6.74Z"/>
    <path class="cls-11" d="m344.75,96.96l-.29-.63s-1.12.51-2.72,1.16c-.58.24-1.56.5-2.36.69-.81.19-1.46.32-1.46.32l.14.68.6-.34-3.78-6.62-.6.34.1.68s2.61-.38,4.57-.98c2.03-.61,2.53-1.61,2.59-1.83l-.66-.21-.6.34,3.88,6.74.6-.34-.29-.63.29.63.6-.34-3.88-6.74c-.14-.24-.4-.37-.67-.34-.27.03-.5.21-.58.47l.36.11-.34-.16-.02.04.36.11-.34-.16-.28.3c-.24.19-.67.45-1.42.68-.89.28-1.99.51-2.86.68-.87.16-1.5.26-1.5.26l-.52.38.02.65,3.79,6.62c.15.26.44.39.73.34.02,0,2.65-.52,4.07-1.09,1.63-.65,2.77-1.18,2.78-1.18l.37-.42-.06-.55-.6.34Z"/>
    <path class="cls-8" d="m324.64,98.4s1.28.3,3.06.83c1.78.53,4.72.7,4.72.7l2.84-7.4s-2.42.15-4.51-.12c-2.09-.27-1.96-.98-1.96-.98l-4.15,6.98Z"/>
    <path class="cls-11" d="m324.64,98.4l-.16.67s1.26.29,3.02.82c1.92.57,4.85.72,4.88.73.3.02.58-.16.68-.44l2.84-7.4-.09-.66-.6-.28s-.64.04-1.56.04c-.83,0-1.87-.03-2.82-.16-.87-.11-1.25-.31-1.36-.39l-.04-.04-.09.08.11-.04-.02-.04-.09.08.11-.04-.34.12h.36l-.02-.12-.34.12h.36-.58l.56.11v-.11s-.56,0-.56,0l.56.11c.06-.33-.12-.66-.43-.78-.31-.12-.67,0-.84.29l-4.15,6.98-.04.62.48.4.16-.67.59.35,4.15-6.98-.59-.35-.68-.13v.15c-.03.25.13.69.55.98.41.3,1.01.52,2.01.66,1.04.14,2.13.17,3,.17.95,0,1.63-.04,1.64-.04l-.04-.69-.65-.25-2.84,7.4.65.25.04-.69s-.72-.04-1.65-.15c-.94-.1-2.1-.28-2.91-.52-1.8-.54-3.09-.84-3.1-.84l-.16.67.59.35-.59-.35Z"/>
    <path class="cls-9" d="m308.68,37.86c2.21-3.26-3.14,2.72-3.21,11.96-.03,3.78,4.41,2.46,4.41,2.46,0,0,1.31-.6,3.8-1.5.3-.11.75-6.54,1.08-6.66.28-.1,1.31,5.83,1.61,5.73,4.5-1.55,10.2-3.17,15.23-3.37.4-.02.8-.03,1.21-.03.35,0,.78-3.28,1.14-3.27.26,0,.43,3.29.69,3.3,4.46.13,9.46.83,13.62,1.52l1.29-6.23c.42,1.11.71,6.61.95,6.65,3.28.56,4.89.85,6.03.96,2.98.3,3.56-4.85,3.21-6.75-1.1-6.03-4.25-7.67-5.66-8.66"/>
    <path class="cls-11" d="m309.25,38.25c.2-.29.34-.51.43-.68l.12-.22.05-.11.05-.27-.11-.38-.58-.32c-.27.02-.34.09-.4.12l-.24.24c-.36.47-1.26,1.94-2.12,4.25-.85,2.29-1.64,5.37-1.67,8.93v.04c-.01,1.25.47,2.2,1.21,2.71.72.51,1.56.63,2.27.63.99,0,1.78-.24,1.82-.25h.05s.04-.03.04-.03c0,0,.31-.14.94-.4.63-.26,1.57-.63,2.81-1.08.26-.11.32-.24.38-.31l.14-.33c.1-.36.17-.88.26-1.54.13-.99.26-2.22.39-3.22.06-.5.13-.93.18-1.23l.07-.31v-.02s-.31-.12-.31-.12l.28.19.03-.06-.32-.12.28.19-.52-.34.21.58.32-.24-.52-.34.21.58h.01s0,0,0,0l-.25-.62v.67l.25-.05-.25-.62v.67-.65l-.47.45c.05.05.18.19.47.2v-.65l-.47.45.34-.32-.41.23.07.09.34-.32-.41.23h0c.05.11.18.58.31,1.13.2.84.43,1.93.65,2.82.11.45.21.84.3,1.15l.15.41.13.22c.07.07.19.27.59.3l.16-.02h.04s.04-.02.04-.02c4.47-1.54,10.13-3.14,15.04-3.34.39-.02.78-.03,1.19-.03.31,0,.48-.17.57-.26l.27-.46c.19-.5.34-1.23.5-1.88.08-.32.16-.6.22-.78l.05-.13-.33-.2.26.29.08-.09-.33-.2.26.29-.4-.46v.6l.4-.15-.4-.46v.6-.69.69s0-.65,0-.65l-.41.51.4.14v-.65s-.4.51-.4.51l.32-.4-.48.21.16.19.32-.4-.48.21h.02s-.02,0-.02,0h0s.02,0,.02,0h-.02c.02.06.08.33.12.64.07.47.14,1.07.22,1.57.04.25.08.47.13.67l.11.31.15.22c.08.08.25.22.51.23,4.41.13,9.39.83,13.53,1.51l.66.11,1.42-6.88-.68-.14-.65.24c.06.15.17.7.25,1.35.13.99.25,2.26.36,3.3.05.52.11.98.16,1.32l.09.45.07.22.11.18c.06.07.18.21.43.25,3.28.56,4.89.85,6.08.97l.32.02c.75,0,1.41-.29,1.9-.74.75-.67,1.17-1.63,1.45-2.62.27-.99.38-2.03.38-2.92,0-.49-.03-.93-.1-1.3-.57-3.12-1.69-5.17-2.87-6.55-1.18-1.38-2.41-2.09-3.08-2.56l-.79,1.13c.75.52,1.79,1.12,2.82,2.32,1.02,1.2,2.03,2.98,2.56,5.9.05.26.08.63.08,1.06,0,1.03-.19,2.36-.61,3.35-.21.5-.48.9-.77,1.16-.29.26-.58.38-.98.39h-.18c-1.09-.12-2.71-.41-5.99-.96l-.11.64.55-.36s-.12-.21-.44-.29l-.11.64.55-.36-.39.25.43-.16-.05-.09-.39.25.43-.16h0c-.03-.13-.1-.59-.16-1.15-.1-.85-.2-1.98-.32-3-.12-1.03-.23-1.89-.43-2.44l-.84-2.25-1.77,8.58.68.14.11-.68c-4.17-.68-9.19-1.39-13.71-1.52l-.02.65.41-.51-.39-.14-.02.65.41-.51-.32.4.47-.21-.15-.19-.32.4.47-.21h-.01s.02,0,.02,0h0s-.01,0-.01,0h.02c-.02-.06-.08-.33-.12-.64-.07-.47-.14-1.07-.22-1.57-.04-.25-.08-.47-.13-.67l-.11-.31-.15-.22c-.08-.09-.26-.22-.52-.23h-.01c-.3,0-.48.16-.57.25l-.27.47c-.19.5-.35,1.23-.51,1.88-.08.32-.16.61-.22.78l-.05.14.33.2-.26-.28-.07.09.33.2-.26-.28.41.45v-.61s-.41.15-.41.15l.41.45v-.61c-.42,0-.83.01-1.24.03-5.15.21-10.9,1.86-15.43,3.41l.22.65-.15-.68.14.64v-.65h-.14s.14.65.14.65v-.65.64l.46-.46c-.05-.05-.18-.18-.46-.18v.64l.46-.46-.33.33.41-.24-.08-.1-.33.33.41-.24h0c-.05-.11-.19-.58-.32-1.12-.2-.84-.43-1.92-.64-2.81-.11-.45-.2-.84-.3-1.14l-.15-.41-.12-.22c-.07-.07-.17-.28-.6-.31l-.26.05.25.64-.23-.65-.37.29-.15.34c-.11.36-.18.89-.27,1.55-.13.99-.26,2.23-.39,3.22-.06.5-.12.93-.18,1.23l-.07.31h.03s-.02,0-.02,0h0s.03,0,.03,0h-.02s.55.26.55.26l-.21-.57c-.32.15-.31.27-.34.29l.55.27-.21-.57c-2.51.91-3.84,1.51-3.85,1.52l.29.63-.2-.66-.1.03c-.22.05-.76.17-1.33.17-.55,0-1.1-.11-1.46-.37-.35-.26-.62-.64-.63-1.59v-.03c.03-3.64.9-6.78,1.79-8.99.44-1.11.89-1.98,1.22-2.57.17-.3.31-.52.41-.66l.1-.13h0s-.32-.29-.32-.29l.27.33.04-.04-.32-.29.27.33-.41-.48.31.55.09-.06-.41-.48.31.55-.34-.59v.68l.34-.09-.34-.59v.68-.69l-.58.37.58.31v-.69l-.58.37.57-.37h-.68l.11.37.57-.37h-.68.61l-.57-.21-.04.21h.61l-.57-.21.13.05-.13-.06h0s.13.06.13.06l-.13-.06c-.02.05-.18.32-.46.73l1.15.78Z"/>
    <path class="cls-6" d="m323.08,64.9c.12,1.61-1.92,3.07-4.55,3.26-2.63.2-4.87-.95-4.99-2.55-.12-1.61,1.92-3.07,4.55-3.26,2.63-.2,4.87.95,4.99,2.55"/>
    <path class="cls-6" d="m353.63,63.92c-.13,1.61-2.37,2.74-5,2.53-2.63-.21-4.67-1.68-4.54-3.29.13-1.61,2.37-2.74,5-2.53s4.67,1.68,4.54,3.29"/>
    <path class="cls-1" d="m381.74,93.37s-3.24.39-6.19,2.66c-2.95,2.27-6.54,8.65-6.89,10.54-.35,1.89-.58,2.84-.58,2.84,0,0,8.41-2.33,12.2-4.4,3.79-2.07,12.31-8.49,12.79-9.6.48-1.12-11.32-2.04-11.32-2.04"/>
    <path class="cls-11" d="m381.74,93.37l-.08-.68c-.06.01-3.41.4-6.53,2.8-1.6,1.24-3.25,3.44-4.59,5.6-1.34,2.18-2.33,4.21-2.56,5.36-.17.94-.32,1.64-.42,2.11-.1.47-.16.69-.16.69l.19.66.67.17s8.41-2.32,12.35-4.46c1.96-1.07,5.04-3.2,7.72-5.21,1.34-1.01,2.58-1.99,3.52-2.79.47-.4.87-.76,1.18-1.07.31-.32.52-.53.68-.87l.07-.34c0-.39-.23-.62-.39-.74-.31-.24-.64-.35-1.07-.48-1.48-.43-4.06-.78-6.33-1.04-2.26-.25-4.18-.4-4.18-.4h-.14s.08.69.08.69l-.05.69s2.82.22,5.64.58c1.4.18,2.81.39,3.83.62.51.11.93.23,1.17.33l.19.1.17-.21-.23.15.05.07.17-.21-.23.15.42-.27h-.5l.08.27.42-.27h-.5.52l-.48-.21-.04.21h.52l-.48-.21.12.05-.11-.06h0s.12.06.12.06l-.11-.06s-.2.26-.48.53c-2.02,1.98-8.85,7.03-12.01,8.75-1.81.99-4.84,2.09-7.4,2.92-2.56.84-4.65,1.41-4.65,1.41l.18.67.67.16s.24-.98.59-2.88c.12-.73,1.1-2.84,2.38-4.89,1.28-2.07,2.91-4.2,4.26-5.23,1.39-1.07,2.87-1.71,3.99-2.07.56-.18,1.04-.3,1.36-.36l.38-.07.12-.02-.08-.68-.05.69.05-.69Z"/>
    <path class="cls-5" d="m393.08,94.82l.79-6.16s-2.49,1.42-5.76,1c-3.27-.42-5.57-2.45-5.57-2.45l-.79,6.16s2.51,2.12,5.56,2.44c3.05.32,5.5.03,5.78-1"/>
    <path class="cls-11" d="m393.08,94.82l.69.09.79-6.16c.03-.26-.08-.52-.3-.66l-.73-.03-.06.03c-.34.18-1.98.96-4.14.96-.36,0-.74-.02-1.13-.07-1.52-.19-2.83-.77-3.76-1.3-.46-.26-.83-.52-1.08-.7l-.28-.21-.08-.07-.7-.13c-.24.09-.41.31-.44.56l-.79,6.16.24.61c.05.03,2.61,2.24,5.93,2.6.8.08,1.56.13,2.26.13,1.03,0,1.92-.09,2.65-.3.37-.11.69-.25.98-.45.28-.2.53-.5.63-.87l.02-.09-.69-.09-.67-.18-.11.12c-.3.25-1.4.51-2.81.49-.64,0-1.36-.04-2.12-.12-1.39-.14-2.7-.71-3.65-1.26-.48-.27-.87-.53-1.13-.72l-.3-.23-.1-.08-.45.53.69.09.79-6.16-.69-.09-.46.52c.05.04,2.43,2.16,5.94,2.62.45.06.89.08,1.3.08,2.84,0,4.83-1.14,4.89-1.17l-.34-.6-.69-.09-.79,6.16.69.09-.67-.18.67.18Z"/>
    <path class="cls-5" d="m368.87,60.05c-.28,2.15-2.25,3.67-4.4,3.4-2.15-.27-3.68-2.24-3.4-4.4.28-2.15,2.25-3.67,4.4-3.4,2.15.28,3.68,2.24,3.4,4.4"/>
    <path class="cls-11" d="m368.87,60.05l-.69-.09c-.21,1.63-1.61,2.83-3.21,2.83l-.42-.03c-1.64-.21-2.83-1.6-2.83-3.21l.03-.42c.21-1.63,1.61-2.83,3.21-2.83l.42.03c1.64.21,2.83,1.6,2.83,3.21l-.03.42.69.09.69.09.04-.59c0-2.29-1.7-4.28-4.04-4.58l-.59-.04c-2.3,0-4.28,1.7-4.58,4.03l-.04.59c0,2.29,1.7,4.28,4.04,4.58l.59.04c2.3,0,4.28-1.7,4.58-4.03l-.69-.09Z"/>
    <path class="cls-5" d="m418.51,68.11c-.28,2.15-2.25,3.67-4.4,3.4-2.15-.27-3.68-2.24-3.4-4.39s2.25-3.67,4.4-3.4c2.15.28,3.68,2.24,3.4,4.4"/>
    <path class="cls-11" d="m418.51,68.11l-.69-.09c-.21,1.63-1.61,2.83-3.21,2.83l-.42-.03c-1.64-.21-2.83-1.6-2.83-3.21l.03-.42c.21-1.63,1.61-2.83,3.21-2.83l.42.03c1.64.21,2.83,1.6,2.83,3.21l-.03.42.69.09.69.09.04-.59c0-2.29-1.7-4.28-4.04-4.58l-.59-.04c-2.3,0-4.28,1.7-4.58,4.03l-.04.59c0,2.29,1.7,4.28,4.04,4.58l.59.04c2.3,0,4.28-1.7,4.58-4.03l-.69-.09Z"/>
    <path class="cls-5" d="m416.57,58.81c-2.41,18.78-15.61,32.57-29.49,30.79-13.88-1.77-23.18-18.43-20.77-37.21,2.41-18.78,15.61-32.57,29.49-30.79,13.88,1.77,23.18,18.43,20.77,37.21"/>
    <path class="cls-11" d="m416.57,58.81l-.69-.09c-1.12,8.71-4.59,16.33-9.36,21.74-4.77,5.41-10.79,8.61-17.03,8.6-.77,0-1.55-.05-2.32-.15l-.09.69.12-.68c-7.03-1.27-12.1-5.23-15.47-10.68-3.36-5.45-4.98-12.41-4.98-19.56,0-8.89,2.51-18.06,7.16-24.96,4.66-6.9,11.39-11.5,19.97-11.51.61,0,1.24.02,1.87.07l.05-.69-.09.68c5.97.76,11.08,4.38,14.74,9.86,3.65,5.47,5.81,12.77,5.81,20.77,0,1.9-.12,3.84-.37,5.81l.69.09.69.09c.26-2.02.38-4.02.38-5.98,0-8.25-2.22-15.81-6.04-21.54-3.82-5.73-9.28-9.64-15.72-10.46h-.02s-.02,0-.02,0c-.67-.05-1.33-.08-1.98-.08-9.11,0-16.29,4.95-21.11,12.12-4.83,7.17-7.39,16.58-7.4,25.73,0,7.36,1.66,14.56,5.19,20.29,3.53,5.73,8.97,9.98,16.4,11.32h.02s.02,0,.02,0c.84.11,1.67.16,2.5.16,6.73,0,13.11-3.44,18.07-9.08,4.97-5.64,8.54-13.5,9.69-22.47l-.69-.09Z"/>
    <path class="cls-11" d="m381.4,55.64c1.25.16,2.14,1.3,1.98,2.55-.16,1.25-1.31,2.13-2.56,1.97s-2.14-1.3-1.98-2.55c.16-1.25,1.31-2.13,2.56-1.97"/>
    <path class="cls-11" d="m397.92,57.42c1.25.16,2.14,1.3,1.98,2.55-.16,1.25-1.31,2.13-2.56,1.97s-2.14-1.3-1.98-2.55c.16-1.25,1.31-2.13,2.56-1.97"/>
    <path class="cls-11" d="m398.36,78.78c-1.14.73-5.57,3.26-9.1,3.24-.28,0-.56-.02-.83-.05-3.87-.44-8-3.85-9.13-4.93l-.94,1.01c1.25,1.15,5.41,4.72,9.91,5.29.33.04.66.06,1,.06,4.12-.02,8.58-2.68,9.83-3.45l-.73-1.17Z"/>
  </g>
  <polygon class="cls-11" points="397.74 77.06 397.1 77.46 399.68 81.67 400.33 81.27 397.74 77.06"/>
  <rect class="cls-11" x="376.37" y="77.16" width="4.94" height=".76" transform="translate(67.77 307.25) rotate(-48.01)"/>
  <g class="cls-13">
    <path class="cls-11" d="m387.19,67.62h-.68l.63.27.06-.27h-.68l.63.27-.48-.21.42.32.06-.11-.48-.21.42.32s.36-.4.8-.69c.45-.3,1.02-.55,1.59-.55.67.01,1.44.29,2.33,1.56l1.14-.79c-1.04-1.53-2.31-2.16-3.47-2.15-1.04,0-1.9.46-2.51.88-.3.22-.54.43-.71.6l-.21.22-.08.1-.05.07-.04.08-.06.28h1.38Z"/>
    <path class="cls-3" d="m419.77,59.33s-.03,4.21-1.37,4.68c-1.34.47-4.78.63-4.41-2.26.37-2.89-.42-6.92.32-8.74.75-1.82-3.11,1.98-3.93,2.69-.82.71-3.06.89-.74-5.2,2.32-6.09,1.85-9.47.97-10.61-.88-1.13-2.12-.4-3.23,1.25-1.11,1.65-3.1,4.2-5.12,4.97-2.02.76-2.9-.37-2.9-.37l1.72-2.46s-3.05,3.83-5.3,4.43-5.15,1.15-6.74.03c-1.04-.73-1.46-1.98-1.46-1.98l1.15-2.02s-1.85,3.99-4.09,4.97c-1.78.78-3.72.96-4.66-.59-.38-.63,1.19-3.3,1.19-3.3,0,0-2.97,5.12-4.51,6.19-1.54,1.08-2.85,3.79-4.55,1.72-.87-1.06-1.04-2.14-1.04-2.14l.91-1.96s-3.34,7.11-3.66,7.58c-.32.47-2.66-.21-4.25-.8-1.59-.58-2.33-1.6-1.38-3.24.95-1.64-.65-.15-1.65-2.13-1.57-3.11.13-6.63.13-6.63-.98-.99-1.58-6.65.08-7.75,1.65-1.09,3.58-1.23,3.58-1.23,0,0-2.44-3.65-.77-5.74,1.68-2.09,2.65-2.97,5.22-3.02,0,0,.21-2.64,2.07-3.19,1.85-.54,3.34-.58,4.24-.1.9.48,1.76,1.25,1.76,1.25,0,0-.2-2.45,1.84-3.34,2.03-.89,3.34-1.23,4.7-.94,2.2.45,3.3-2.39,4.89-1.46,1.53.89,2.42,1.34,2.42,1.34,0,0,.82-2.15,2.35-2.08,1.53.07,3.1.78,4.04,1.41.94.63.24,3.1.24,3.1,0,0,1.92-2.13,5.13-2.23,3.21-.1,6.59-.36,8.05,1.23,1.46,1.59,3.16,4.51,3.48,5.81.31,1.3.7,1.5.7,1.5,0,0,3.11-4.78,3.38-6.91.27-2.14,2.16,1.95,1.76,4.76-.4,2.81-1.46,4.41-1.46,4.41,0,0,1.95-1.51,4.52-1.56,2.57-.06,3.79,1.92,3.79,1.92,0,0-3.69-.68-4.56,1.48-.66,1.64-1.91,2.29-1.91,2.29,0,0,3.03,2.33,2.91,4.78-.12,2.45-.75,4.88-1.2,5.34-.44.45,2.42,3.12,1.2,5.65-1.22,2.53-3.67,5.66-3.67,5.66l-.2,3.55Z"/>
    <path class="cls-11" d="m419.77,59.33h-.69s0,.24-.02.63c-.03.58-.12,1.47-.3,2.2-.09.37-.21.69-.33.91l-.25.29c-.33.12-.92.23-1.49.23-.58,0-1.14-.11-1.49-.33-.34-.23-.53-.46-.54-1.08l.02-.33c.08-.65.11-1.34.11-2.03,0-1.46-.12-2.97-.12-4.23,0-1,.08-1.84.28-2.31l.15-.62-.21-.56-.6-.26c-.32.01-.47.11-.65.2-.58.33-1.32.97-2.05,1.63-.72.65-1.4,1.3-1.67,1.53l-.41.18-.07-.03s-.14-.25-.14-.7c0-.71.24-1.97.98-3.88,1.28-3.36,1.74-5.93,1.74-7.83,0-1.61-.32-2.72-.86-3.44-.37-.5-.94-.82-1.52-.82-1.18.05-2.02.94-2.83,2.1-1.06,1.61-3.07,4.09-4.79,4.71-.44.17-.79.22-1.07.22-.41,0-.67-.11-.84-.22l-.17-.13-.03-.03-.15.13.16-.12h0s-.15.12-.15.12l.16-.12-.55.42.57.4,1.72-2.46c.21-.31.15-.73-.15-.95-.3-.22-.72-.17-.95.12,0,0-.18.22-.49.58-.47.54-1.23,1.36-2.06,2.09-.82.73-1.75,1.36-2.39,1.52-1.27.34-2.75.66-3.99.65-.91,0-1.68-.17-2.17-.52-.4-.28-.72-.7-.92-1.04l-.22-.43-.05-.12v-.03s-.67.22-.67.22l.6.34,1.15-2.02-.6-.34-.63-.29s-.11.23-.31.6c-.3.56-.81,1.43-1.42,2.23-.61.8-1.36,1.51-2.01,1.79-.75.33-1.52.53-2.14.53-.76-.02-1.26-.23-1.65-.85l-.26.16.3-.06-.04-.09-.26.15.3-.06h0c-.02-.18.25-.96.56-1.56.3-.62.6-1.12.6-1.12l.07-.52-.32-.42-.52-.07-.42.32s-.73,1.26-1.65,2.66c-.46.7-.97,1.42-1.44,2.03-.47.61-.94,1.1-1.21,1.28-.67.47-1.21,1.12-1.72,1.61-.51.51-.96.77-1.16.74-.14,0-.35-.05-.74-.51-.38-.46-.6-.92-.73-1.27l-.13-.41-.02-.11v-.02s-.69.1-.69.1l.63.29.91-1.96c.16-.35,0-.75-.34-.92-.35-.16-.75-.01-.92.33,0,0-.84,1.78-1.71,3.61-.44.92-.88,1.85-1.24,2.58-.18.37-.33.68-.45.91l-.15.28-.05.08v.02s.28.2.28.2l-.1-.36-.19.16.3.2-.1-.36h-.14c-.63.02-2.33-.46-3.49-.9-.49-.18-.85-.4-1.06-.61-.21-.22-.28-.39-.29-.65,0-.23.08-.56.33-.99.21-.4.36-.61.38-1.04l-.26-.63c-.31-.26-.5-.25-.64-.29l-.54-.17c-.16-.1-.35-.25-.56-.66-.44-.87-.59-1.78-.59-2.63,0-.93.18-1.79.37-2.41.09-.31.18-.56.25-.73l.08-.19.02-.05c.13-.26.07-.58-.13-.79-.08-.05-.36-.62-.5-1.34-.16-.73-.26-1.63-.26-2.49,0-.71.07-1.39.21-1.92.14-.53.37-.86.52-.95.73-.48,1.56-.77,2.2-.93.32-.08.59-.13.78-.16l.28-.03.57-.39-.05-.69-.19-.31c-.36-.61-1.06-2.05-1.05-3.23,0-.54.13-1,.43-1.38.83-1.03,1.45-1.71,2.1-2.12.65-.41,1.38-.61,2.59-.64.36,0,.65-.28.68-.64v-.08c.04-.21.14-.8.39-1.34.26-.55.63-.99,1.19-1.15.94-.27,1.77-.41,2.42-.41.58,0,1.01.1,1.29.25.4.21.81.51,1.12.74.31.24.5.41.51.41.21.19.52.23.77.1.25-.13.4-.39.38-.67v-.12c0-.24.03-.76.23-1.27.21-.51.54-.98,1.19-1.27,1.54-.68,2.58-.99,3.48-.98.27,0,.53.03.8.08l.62.06c1.06,0,1.84-.55,2.45-.98.61-.46,1.09-.75,1.32-.72l.3.09c1.54.9,2.45,1.35,2.46,1.36l.56.03.4-.4.03-.06c.07-.16.29-.61.59-.98.32-.37.67-.61,1.01-.6h.04c1.33.05,2.84.72,3.69,1.29l.11.2.07.59c0,.35-.05.75-.11,1.05-.06.3-.11.49-.11.49-.09.31.05.64.33.79.28.16.63.1.85-.14l.06-.06c.35-.35,2.04-1.87,4.58-1.94,1.02-.03,2.04-.08,3-.08,1.04,0,2,.06,2.79.23.79.17,1.37.46,1.73.86,1.37,1.46,3.09,4.45,3.32,5.51.34,1.4.81,1.82,1.06,1.95.31.16.7.06.89-.24,0,0,.79-1.21,1.61-2.7.82-1.5,1.69-3.21,1.88-4.51l.03-.17v-.04s-.27-.13-.27-.13l.2.24.09-.11-.29-.13.2.24-.33-.39v.51l.33-.12-.33-.39v.51-.45l-.2.41.2.05v-.45l-.2.41.09-.17-.13.15.04.03.09-.17-.13.15c.06.02.43.63.64,1.38.24.75.41,1.68.41,2.52,0,.26-.02.5-.05.73-.19,1.34-.54,2.38-.83,3.09-.15.35-.28.62-.38.8l-.11.19-.03.05c-.19.28-.14.66.11.89.25.23.63.25.89.04l.07-.05c.35-.25,2.03-1.34,4.04-1.37h.09c1.06,0,1.82.4,2.35.81.26.21.45.41.58.56l.14.18.03.04h0s.59-.36.59-.36l.13-.68s-.62-.11-1.41-.11c-.63,0-1.38.07-2.11.34-.72.27-1.45.8-1.8,1.68-.28.71-.69,1.2-1.03,1.51l-.42.34-.11.07h-.02s-.37.57-.37.57l.27.61.11.09c.25.21.92.79,1.49,1.54.58.75,1.05,1.66,1.04,2.46v.11c-.06,1.18-.24,2.36-.46,3.29-.11.47-.23.86-.34,1.16l-.15.35-.05.09v.02s.05.05.05.05l-.06-.06h0s.06.06.06.06l-.06-.06-.24.61c.02.44.18.65.32.95.47.85,1.24,2.08,1.22,3.21,0,.36-.07.7-.24,1.05-.58,1.2-1.48,2.6-2.24,3.68-.75,1.09-1.35,1.85-1.35,1.85l-.15.39-.2,3.55v.03s.69,0,.69,0l.69.04.2-3.55-.69-.04.55.42s2.47-3.15,3.75-5.79c.26-.55.37-1.11.37-1.65,0-1.13-.45-2.12-.85-2.89-.2-.38-.4-.72-.53-.97l-.14-.29-.02-.06-.2.05h.2v-.05s-.2.05-.2.05h.2-.51l.36.35.15-.35h-.51l.36.35c.25-.27.36-.55.51-.92.41-1.1.79-2.95.88-4.87v-.18c0-1.48-.85-2.74-1.62-3.66-.78-.92-1.54-1.5-1.56-1.52l-.42.55.32.61c.08-.04,1.47-.78,2.23-2.65.18-.44.51-.7,1.01-.9.49-.19,1.1-.25,1.62-.25.33,0,.63.02.84.05l.32.04c.27.05.54-.06.7-.29l.02-.75s-.37-.59-1.06-1.14c-.69-.55-1.77-1.11-3.2-1.11h-.12c-2.83.08-4.87,1.67-4.93,1.71l.42.55.58.38c.04-.06,1.15-1.75,1.57-4.69.04-.31.06-.62.06-.93,0-1.16-.26-2.35-.59-3.29-.17-.47-.35-.87-.56-1.2l-.36-.44c-.14-.13-.34-.28-.68-.29-.39,0-.7.29-.8.5-.12.23-.17.44-.2.7-.09.84-.91,2.59-1.71,4.01-.8,1.44-1.56,2.61-1.56,2.61l.58.38.31-.62-.18.35.27-.29-.09-.06-.18.35.27-.29-.13-.21c-.08-.16-.2-.45-.3-.89-.4-1.54-2.09-4.39-3.64-6.11-.64-.69-1.51-1.06-2.45-1.27-.95-.21-2-.26-3.09-.26-1,0-2.04.05-3.05.08-3.52.12-5.56,2.4-5.62,2.46l.52.46.66.19s.27-.94.28-1.92c-.01-.63-.08-1.42-.8-1.94-1.04-.69-2.68-1.44-4.4-1.53h0-.11c-1.09.01-1.81.73-2.25,1.32-.44.61-.66,1.17-.67,1.2l.65.25.31-.62s-.21-.11-.62-.33-1-.55-1.76-.99c-.32-.19-.67-.28-1-.28-.94.03-1.54.58-2.12.98-.58.42-1.1.73-1.64.72l-.33-.04c-.36-.07-.72-.11-1.08-.11-1.22,0-2.44.4-4.04,1.1-1.05.45-1.64,1.28-1.93,2.02-.29.75-.33,1.43-.33,1.78v.23s.7-.05.7-.05l.46-.52s-.89-.8-1.89-1.34c-.56-.3-1.22-.42-1.95-.42-.84,0-1.78.16-2.81.46-1.24.37-1.87,1.39-2.19,2.21-.32.83-.38,1.55-.38,1.59l.69.05v-.69c-1.37.03-2.42.29-3.31.86-.89.57-1.6,1.37-2.45,2.42-.55.68-.74,1.49-.74,2.25.02,2.21,1.45,4.25,1.47,4.3l.58-.38-.05-.69c-.06.01-2.08.15-3.91,1.35-.6.41-.89,1.05-1.09,1.73-.19.69-.26,1.48-.26,2.28,0,.97.11,1.95.3,2.78.2.84.41,1.51.87,2.01l.49-.49-.62-.3c-.02.05-.86,1.77-.86,3.98,0,1.02.19,2.16.74,3.26.45.94,1.19,1.36,1.7,1.48l.47.11.1-.35-.25.26.14.1.1-.35-.25.26.35-.36h-.51l.16.36.35-.36h-.51.25l-.24-.06v.06s.24,0,.24,0l-.24-.06-.2.41c-.33.57-.52,1.13-.52,1.68,0,.63.27,1.21.68,1.62.42.42.95.71,1.57.94,1.27.46,2.89.98,3.97,1l.52-.06.57-.4c.09-.14.16-.28.29-.53.86-1.7,3.42-7.13,3.42-7.14l.02-.53-.36-.39-.53-.02-.39.36-.91,1.96-.05.39c.01.07.2,1.27,1.19,2.48.51.63,1.14,1.01,1.81,1.01.93-.02,1.56-.6,2.12-1.14.56-.55,1.09-1.15,1.56-1.47.5-.36.98-.91,1.5-1.56,1.53-1.96,3.2-4.84,3.21-4.85.19-.33.08-.75-.25-.94s-.75-.08-.94.25c0,0-.32.55-.65,1.22-.32.69-.67,1.42-.69,2.15l.16.63c.63,1.08,1.76,1.53,2.83,1.52.9,0,1.83-.26,2.7-.64,1.36-.61,2.41-1.94,3.19-3.1.77-1.17,1.25-2.19,1.26-2.21.16-.34.02-.73-.31-.9-.33-.17-.73-.05-.92.27l-1.15,2.02-.05.56c.03.06.46,1.41,1.72,2.32.85.59,1.89.77,2.96.77,1.47,0,3.03-.35,4.35-.7,1.38-.39,2.71-1.56,3.8-2.62,1.08-1.06,1.85-2.04,1.86-2.05l-.54-.43-.57-.4-1.72,2.46.02.82c.06.09.75.9,2.13.9.46,0,.98-.09,1.56-.31,2.32-.91,4.29-3.54,5.44-5.23.68-1.05,1.44-1.54,1.68-1.49.12,0,.22.02.43.28.26.32.58,1.19.57,2.6,0,1.67-.42,4.1-1.65,7.34-.76,2.01-1.06,3.38-1.06,4.38,0,.63.12,1.13.42,1.53.29.4.78.59,1.18.58.54,0,.98-.23,1.31-.52.36-.31,1.18-1.1,1.99-1.81.4-.36.8-.69,1.11-.92l.38-.25.08-.04-.11-.29v.3h.11s-.11-.3-.11-.3v.3-.58l-.43.38.43.2v-.58l-.43.38.4-.36h-.55l.15.36.4-.36h-.55.26l-.26-.04v.04s.26,0,.26,0l-.26-.04-.05.13c-.32.8-.38,1.77-.38,2.83,0,1.34.12,2.85.12,4.23,0,.66-.03,1.29-.1,1.86l-.03.5c-.02,1.02.5,1.84,1.19,2.25.69.42,1.48.54,2.22.54.74,0,1.43-.13,1.95-.31.65-.25.96-.79,1.19-1.31.65-1.61.63-3.97.64-4.01h-.69s.69.03.69.03l-.69-.04Z"/>
    <path class="cls-10" d="m375.66,63.48c-2.21,0-4.01,1.03-4.09,2.41-.09,1.47,1.79,2.79,4.21,2.94.15,0,.3.01.45.01,2.21,0,4.01-1.03,4.09-2.41.09-1.47-1.79-2.79-4.21-2.94-.15,0-.3-.01-.45-.01"/>
    <path class="cls-10" d="m401.94,66.55c-1.73,0-3.13.71-3.38,1.84-.32,1.44,1.35,3.03,3.71,3.55.51.11,1.01.16,1.48.16,1.73,0,3.13-.71,3.38-1.84.32-1.44-1.35-3.03-3.71-3.55-.51-.11-1.01-.16-1.48-.16"/>
  </g>
</svg>