<?xml version="1.0" encoding="UTF-8"?>
<svg id="Ebene_1" data-name="Ebene 1" xmlns="http://www.w3.org/2000/svg" viewBox="0 0 566.93 141.73">
  <defs>
    <style>
      .cls-1 {
        fill: #216828;
      }

      .cls-2 {
        fill: #1d1d1b;
      }
    </style>
  </defs>
  <g>
    <path class="cls-2" d="m202.16,23.16h2.33l9.63,34.52h.1l9.78-34.52h2.85l9.94,34.52h.1l9.47-34.52h2.43l-10.61,36.96h-2.59l-10.14-34.99h-.1l-9.99,34.99h-2.54l-10.66-36.96Z"/>
    <path class="cls-2" d="m289.12,41.63c0,2.69-.4,5.22-1.19,7.58-.79,2.37-1.94,4.42-3.44,6.16-1.5,1.74-3.34,3.11-5.51,4.12-2.18,1-4.64,1.5-7.4,1.5s-5.24-.5-7.43-1.5c-2.19-1-4.04-2.37-5.54-4.12-1.5-1.74-2.65-3.79-3.44-6.16-.79-2.36-1.19-4.89-1.19-7.58s.4-5.22,1.19-7.58c.79-2.36,1.94-4.42,3.44-6.16,1.5-1.74,3.35-3.11,5.54-4.12s4.67-1.5,7.43-1.5,5.23.5,7.4,1.5c2.17,1,4.01,2.37,5.51,4.12,1.5,1.74,2.65,3.8,3.44,6.16.79,2.36,1.19,4.89,1.19,7.58Zm-32.87,0c0,2.38.34,4.62,1.04,6.73.69,2.11,1.69,3.94,3,5.51,1.31,1.57,2.91,2.82,4.81,3.75,1.9.93,4.05,1.4,6.47,1.4s4.56-.46,6.44-1.4c1.88-.93,3.48-2.18,4.79-3.75,1.31-1.57,2.31-3.41,3-5.51.69-2.1,1.03-4.35,1.03-6.73s-.34-4.62-1.03-6.73c-.69-2.11-1.69-3.94-3-5.51-1.31-1.57-2.91-2.82-4.79-3.75-1.88-.93-4.03-1.4-6.44-1.4s-4.57.46-6.47,1.4c-1.9.93-3.5,2.18-4.81,3.75-1.31,1.57-2.31,3.41-3,5.51-.69,2.11-1.04,4.35-1.04,6.73Z"/>
    <path class="cls-2" d="m297.87,23.16h2.28v34.99h20.97v1.97h-23.24V23.16Z"/>
    <path class="cls-2" d="m327.63,23.16h23.19v1.97h-20.91v14.8h18.84v1.97h-18.84v18.22h-2.28V23.16Z"/>
    <path class="cls-2" d="m358.12,23.16h15.42c1.62,0,3.14.16,4.55.49s2.66.86,3.73,1.61c1.07.74,1.91,1.72,2.51,2.92.6,1.21.9,2.71.9,4.5,0,2.48-.7,4.58-2.09,6.29-1.4,1.71-3.34,2.77-5.82,3.18v.1c1.69.21,3.03.66,4.01,1.35.98.69,1.72,1.54,2.2,2.54.48,1,.79,2.1.93,3.31.14,1.21.21,2.41.21,3.62v2.12c0,.69.03,1.34.1,1.94.07.6.18,1.16.34,1.68.15.52.37.95.64,1.29h-2.54c-.48-.86-.75-1.87-.8-3.03-.05-1.16-.08-2.35-.08-3.6s-.05-2.48-.16-3.7c-.1-1.22-.43-2.32-.98-3.29-.55-.97-1.42-1.74-2.61-2.33-1.19-.59-2.87-.88-5.05-.88h-13.15v16.82h-2.28V23.16Zm15.42,18.17c1.35,0,2.59-.16,3.75-.49,1.16-.33,2.15-.84,2.98-1.53.83-.69,1.48-1.57,1.97-2.64.48-1.07.73-2.35.73-3.83,0-1.38-.26-2.56-.78-3.54-.52-.98-1.21-1.79-2.07-2.41-.86-.62-1.86-1.07-3-1.35-1.14-.27-2.33-.41-3.57-.41h-13.15v16.2h13.15Z"/>
    <path class="cls-2" d="m405.58,23.16h2.48l14.6,36.96h-2.43l-4.66-11.85h-17.7l-4.71,11.85h-2.43l14.86-36.96Zm9.27,23.14l-7.92-20.91h-.1l-8.23,20.91h16.25Z"/>
    <path class="cls-2" d="m421.17,25.12v-1.97h28.31v1.97h-13.04v34.99h-2.28V25.12h-12.99Z"/>
  </g>
  <g>
    <path class="cls-1" d="m204.58,82.03h6.47v36.96h-6.47v-36.96Z"/>
    <path class="cls-1" d="m220.01,82.03h6.83l16.87,27.23h.1v-27.23h6.16v36.96h-6.83l-16.82-27.17h-.16v27.17h-6.16v-36.96Z"/>
    <path class="cls-1" d="m291.18,118.99h-4.14l-.98-4.35c-1.72,1.97-3.45,3.33-5.18,4.09-1.72.76-3.71,1.14-5.95,1.14-2.76,0-5.23-.51-7.43-1.53-2.19-1.02-4.04-2.41-5.56-4.17-1.52-1.76-2.69-3.81-3.49-6.16-.81-2.35-1.22-4.85-1.22-7.5s.41-5.11,1.22-7.45c.81-2.35,1.97-4.4,3.49-6.16,1.52-1.76,3.37-3.16,5.56-4.19,2.19-1.03,4.67-1.55,7.43-1.55,2,0,3.91.27,5.72.8,1.81.53,3.42,1.33,4.84,2.38,1.41,1.05,2.59,2.37,3.52,3.96.93,1.59,1.52,3.41,1.76,5.49h-6.31c-.18-1.21-.55-2.27-1.11-3.18-.57-.92-1.29-1.68-2.15-2.3s-1.83-1.09-2.9-1.4c-1.07-.31-2.19-.46-3.37-.46-1.97,0-3.67.4-5.1,1.19-1.43.79-2.59,1.85-3.49,3.18-.9,1.33-1.56,2.84-1.99,4.53-.43,1.69-.65,3.42-.65,5.18s.22,3.49.65,5.18c.43,1.69,1.1,3.2,1.99,4.53.9,1.33,2.06,2.39,3.49,3.18,1.43.79,3.13,1.19,5.1,1.19,1.66.04,3.12-.18,4.4-.64,1.27-.47,2.35-1.14,3.23-2.02.88-.88,1.55-1.96,1.99-3.23.45-1.28.69-2.69.73-4.25h-9.83v-4.92h15.73v19.46Z"/>
    <path class="cls-1" d="m299.51,82.03h26.6v5.59h-20.13v9.68h18.63v5.28h-18.63v10.82h20.5v5.59h-26.97v-36.96Z"/>
    <path class="cls-1" d="m333.15,82.03h6.83l16.87,27.23h.1v-27.23h6.16v36.96h-6.83l-16.82-27.17h-.16v27.17h-6.16v-36.96Z"/>
    <path class="cls-1" d="m372.08,82.03h6.47v36.96h-6.47v-36.96Z"/>
    <path class="cls-1" d="m387.76,82.03h26.6v5.59h-20.13v9.68h18.63v5.28h-18.63v10.82h20.5v5.59h-26.97v-36.96Z"/>
    <path class="cls-1" d="m421.25,82.03h6.47v21.53c0,1.24.06,2.5.18,3.78s.47,2.43,1.04,3.44c.57,1.02,1.43,1.85,2.59,2.51,1.16.66,2.79.98,4.89.98s3.73-.33,4.89-.98c1.16-.66,2.02-1.49,2.59-2.51.57-1.02.91-2.17,1.03-3.44.12-1.28.18-2.54.18-3.78v-21.53h6.47v23.66c0,2.38-.36,4.45-1.09,6.21-.73,1.76-1.75,3.24-3.08,4.43-1.33,1.19-2.93,2.08-4.79,2.67-1.86.59-3.93.88-6.21.88s-4.35-.29-6.21-.88c-1.86-.59-3.46-1.48-4.79-2.67-1.33-1.19-2.35-2.67-3.08-4.43-.73-1.76-1.09-3.83-1.09-6.21v-23.66Z"/>
    <path class="cls-1" d="m460.33,82.03h17.65c4.07,0,7.13.88,9.16,2.64,2.04,1.76,3.06,4.21,3.06,7.35,0,1.76-.26,3.22-.78,4.38-.52,1.16-1.12,2.09-1.81,2.8-.69.71-1.37,1.22-2.04,1.53-.67.31-1.16.52-1.48.62v.1c.55.07,1.15.24,1.79.52.64.28,1.23.72,1.79,1.32.55.6,1.01,1.39,1.37,2.35.36.97.54,2.18.54,3.62,0,2.17.16,4.15.49,5.93.33,1.78.84,3.05,1.53,3.8h-6.93c-.49-.79-.77-1.67-.86-2.64-.08-.97-.13-1.9-.13-2.8,0-1.69-.1-3.15-.31-4.37-.21-1.22-.59-2.24-1.14-3.06-.55-.81-1.3-1.4-2.25-1.78-.95-.38-2.17-.57-3.65-.57h-9.52v15.22h-6.47v-36.96Zm6.47,16.82h10.61c2.07,0,3.64-.49,4.71-1.48,1.07-.98,1.61-2.46,1.61-4.43,0-1.17-.17-2.13-.52-2.87-.34-.74-.82-1.32-1.42-1.74-.6-.41-1.29-.69-2.07-.83-.78-.14-1.58-.21-2.41-.21h-10.51v11.54Z"/>
    <path class="cls-1" d="m498.06,82.03h26.6v5.59h-20.13v9.68h18.63v5.28h-18.63v10.82h20.5v5.59h-26.97v-36.96Z"/>
  </g>
  <path class="cls-1" d="m140.77,120.06v-47.16l11.69-50.82h14.36v97.98h-26.05Z"/>
  <path class="cls-1" d="m48.51,22.08c2.21,9.9,4.42,19.93,6.63,30.11,2.2,10.19,4.37,20.27,6.48,30.26,2.2-9.99,4.44-20.07,6.7-30.26,2.26-10.18,4.44-20.21,6.56-30.11h22.77c2.3,9.9,4.61,19.89,6.91,29.97,2.31,10.08,4.61,20.12,6.92,30.11,2.21-9.99,4.4-20.03,6.55-30.11,2.16-10.08,4.3-20.07,6.41-29.97h23.2c-3.56,16.13-7.11,32.47-10.66,48.99-3.55,16.52-7.11,32.85-10.66,48.99h-28.82c-2.02-8.93-4.08-17.94-6.2-27.02-2.11-9.08-4.17-18.08-6.19-27.02-1.92,8.93-3.89,17.94-5.91,27.02-2.02,9.08-3.99,18.08-5.91,27.02h-28.38c-3.55-16.13-7.11-32.47-10.66-48.99-3.55-16.52-7.11-32.85-10.66-48.99h24.92Z"/>
</svg>